<svg xmlns="http://www.w3.org/2000/svg" viewBox="0 0 244.346 269.919"><defs><style>.cls-1,.cls-5{fill:#efb764;}.cls-1,.cls-2{stroke:#cc9a56;}.cls-1,.cls-2,.cls-3,.cls-4{stroke-miterlimit:10;}.cls-1{stroke-width:0.75px;}.cls-2,.cls-3,.cls-4{fill:none;}.cls-3{stroke:#fdb51c;}.cls-4{stroke:#000;}.cls-6{fill:#f6ead4;}.cls-7{fill:#fff8e8;}.cls-8{fill:#d9a0a7;}.cls-9{font-size:36px;font-family:MonotypeCorsiva, Monotype Corsiva;}</style></defs><title>PanGato</title><g id="Hojas"><path class="cls-1" d="M207.388,267.106c2.163,26.826,14.422,39.085,14.422,39.085s3.9-27.4-1.3-45A65.517,65.517,0,0,0,204.3,233.579a.044.044,0,0,0-.073.038Z" transform="translate(-203.85 -126.971)"/><path class="cls-1" d="M223.685,296.6" transform="translate(-203.85 -126.971)"/><path class="cls-1" d="M222.95,295.272s23.473-20.228,34.723-34.615c0,0,8.274-11.138,6.018-24.7a.163.163,0,0,0-.295-.066c-1.438,2.113-9.508,13.775-16.865,20.544C238.418,263.9,223.6,279.371,222.95,295.272Z" transform="translate(-203.85 -126.971)"/><path class="cls-1" d="M227.658,272.732s-4.327-28.7,3.749-55.1l6.9-20.132a.107.107,0,0,1,.209.024c.342,4.491,2.605,37.025-2.492,49.1Z" transform="translate(-203.85 -126.971)"/><path class="cls-1" d="M246.648,231.82c7.084-6.849,28.927-26.1,55.2-31.051a.1.1,0,0,1,.1.156A90.077,90.077,0,0,1,288.1,214.38a97.22,97.22,0,0,1-24.555,14.335l-21.267,8.569.4-.624A27.116,27.116,0,0,1,246.648,231.82Z" transform="translate(-203.85 -126.971)"/><path class="cls-1" d="M247.825,227.41s-3.57-9.195,5.3-26.5c8.83-17.229,14.015-31.563,15.556-47.379a.035.035,0,0,1,.068-.007c.517,2.343,5.046,23.805,1.085,39.617a29.642,29.642,0,0,1-4.671,10.018Z" transform="translate(-203.85 -126.971)"/><path class="cls-1" d="M279.472,189.184c.432-4.381,2.5-16.774,12.243-26l0,0c.13-.114,26.958-23.746,41.824-35.683a.688.688,0,0,1,1.082.755c-1.783,5.444-7.321,19.9-17.71,26.932,0,0-32.038,23.96-37,34.115A.231.231,0,0,1,279.472,189.184Z" transform="translate(-203.85 -126.971)"/><path class="cls-1" d="M272.579,195.785s9.519-16.118,52.679-12.656c0,0,19.9.108,28.016-2.6,0,0-5.733,11.25-34.4,12.872,0,0-36.778-2.488-47.487,4.543Z" transform="translate(-203.85 -126.971)"/></g><g id="Rama"><path class="cls-2" d="M221.745,316.66c1.52-87.724,67.853-160.512,151.659-170.043" transform="translate(-203.85 -126.971)"/><path class="cls-3" d="M204.894,232.277" transform="translate(-203.85 -126.971)"/><path class="cls-4" d="M196.6,264.7" transform="translate(-203.85 -126.971)"/><path class="cls-4" d="M237.319,383.936" transform="translate(-203.85 -126.971)"/></g><g id="Pintura"><g id="Cara"><path class="cls-5" d="M367.66,258.287a1.5,1.5,0,0,0,0-3,1.5,1.5,0,0,0,0,3Z" transform="translate(-203.85 -126.971)"/><path class="cls-5" d="M367.66,258.287a1.5,1.5,0,0,0,0-3,1.5,1.5,0,0,0,0,3Z" transform="translate(-203.85 -126.971)"/><path class="cls-5" d="M362.17,295.468a33.373,33.373,0,0,0,21.213-8.787,22.468,22.468,0,0,0,6.2-9.655,22.584,22.584,0,0,0,2.584-11.558l-1.071-7.975a29.971,29.971,0,0,0-7.716-13.238l-6.071-4.691a29.863,29.863,0,0,0-15.142-4.1,22.594,22.594,0,0,0-11.558,2.584,26.977,26.977,0,0,0-15.858,15.858,22.594,22.594,0,0,0-2.584,11.558l1.072,7.975a29.969,29.969,0,0,0,7.715,13.238l6.072,4.691a29.859,29.859,0,0,0,15.141,4.1Z" transform="translate(-203.85 -126.971)"/><path class="cls-5" d="M388.906,269.737a1.1,1.1,0,0,1,.288.072l-1.791-.757a2.071,2.071,0,0,1,.381.229l-1.517-1.172a3.6,3.6,0,0,1,.425.448l-1.173-1.518a15.358,15.358,0,0,1,1.824,3.254l-.756-1.792a8.124,8.124,0,0,1,.56,1.638l-.268-1.993-.006.143.268-1.994-.055.152.757-1.791a9.488,9.488,0,0,0-.716,1.453,7.263,7.263,0,0,0-.549,1.5,11.579,11.579,0,0,0-.29,2.561,20.6,20.6,0,0,0,.327,2.574,7.177,7.177,0,0,0,.315,1.277,9.642,9.642,0,0,0,2.083,3.608,5.788,5.788,0,0,0,.931.777,5.427,5.427,0,0,0,.983.713,5.576,5.576,0,0,0,2.788.89,7.706,7.706,0,0,0,7.473-3.58,7.569,7.569,0,0,0,.756-5.78l-.756-1.791a7.543,7.543,0,0,0-2.691-2.691.734.734,0,0,1-.223-.126l1.518,1.172a.914.914,0,0,1-.172-.19l1.173,1.518a1.459,1.459,0,0,1-.13-.235l.757,1.791a6.545,6.545,0,0,1-.365-1.506l.268,1.993a4.408,4.408,0,0,1-.013-.981l-.267,1.994a2.863,2.863,0,0,1,.17-.61l-.756,1.792a5.334,5.334,0,0,1,.294-.487,7.985,7.985,0,0,0,1.122-4.008,9.485,9.485,0,0,0-.439-2.763,30.462,30.462,0,0,0-1.629-3.87,15.079,15.079,0,0,0-1.2-2,13.557,13.557,0,0,0-1.736-2.154,8.623,8.623,0,0,0-3.979-2.229,5.68,5.68,0,0,0-2.991-.134,5.576,5.576,0,0,0-2.788.89,8.388,8.388,0,0,0-3.447,4.482,7.591,7.591,0,0,0,.756,5.779,7.344,7.344,0,0,0,4.482,3.447Z" transform="translate(-203.85 -126.971)"/><path class="cls-5" d="M391.72,249.812a11.016,11.016,0,0,1-1.739-1.021l1.518,1.173a4.522,4.522,0,0,1-.757-.745l1.173,1.518a3.381,3.381,0,0,1-.416-.708l.756,1.791c-.036-.093-.069-.187-.1-.283l-12.535,7.3q1.033,1.215,2.144,2.358c.166.171.331.346.507.507.049.044.1.085.15.126.461.375,1.094.883,1.582,1.221a3.269,3.269,0,0,0,.32.2,13.641,13.641,0,0,1,1.358.758l-1.518-1.172a.477.477,0,0,1,.094.091l-1.173-1.518.033.054-.756-1.792.019.061-.268-1.994v.056l.268-1.994-.02.052.756-1.791-.033.045,1.173-1.518-.043.034,3.309-1.928-.047.018,1.993-.268h-.048l3.786,1.024-.045-.025a5.576,5.576,0,0,0-2.788-.89,7.706,7.706,0,0,0-7.473,3.58l-.756,1.792a7.559,7.559,0,0,0,0,3.988l.756,1.791a7.543,7.543,0,0,0,2.691,2.691,4.284,4.284,0,0,0,.94.4,5.641,5.641,0,0,0,2.889.646,3.353,3.353,0,0,0,1.045-.133,2.278,2.278,0,0,0,1.045-.152l1.792-.756q.789-.592,1.56-1.207l1.173-1.518a2.241,2.241,0,0,0,.412-.941,5.511,5.511,0,0,0,.665-2.97,7.721,7.721,0,0,0-2.248-5.446,9.6,9.6,0,0,0-1.611-1.264c-.548-.363-1.179-.6-1.712-.979l1.518,1.173a13.12,13.12,0,0,1-1.43-1.438q-.718-.773-1.4-1.577l-1.518-1.173a5.583,5.583,0,0,0-2.789-.89,3.769,3.769,0,0,0-1.994,0,5.579,5.579,0,0,0-2.788.89l-1.518,1.173-1.173,1.518a5.589,5.589,0,0,0-.89,2.788,5.691,5.691,0,0,0,.134,2.991,15.716,15.716,0,0,0,.915,2.211,3.134,3.134,0,0,0,.265.451,12.12,12.12,0,0,0,1.837,2.236,17.266,17.266,0,0,0,2.4,1.787c.339.2.69.377,1.041.554a5.583,5.583,0,0,0,2.789.89,7.706,7.706,0,0,0,7.473-3.58l.756-1.792a7.555,7.555,0,0,0,0-3.987l-.756-1.792a7.543,7.543,0,0,0-2.691-2.691Z" transform="translate(-203.85 -126.971)"/><path class="cls-5" d="M389.009,243.66c-1.931-1.027-3.535-2.537-5.4-3.665-1.816-1.1-3.83-1.835-5.541-3.108l1.518,1.172-.15-.116a8.351,8.351,0,0,0-5.3-2.2,7.632,7.632,0,0,0-5.3,2.2,7.542,7.542,0,0,0-2.2,5.3l.268,1.993a7.486,7.486,0,0,0,1.929,3.31,26.628,26.628,0,0,0,4.094,2.76c.986.509,1.994.977,2.951,1.54,1.934,1.139,3.578,2.706,5.564,3.762a7.891,7.891,0,0,0,5.779.756,7.5,7.5,0,0,0,1.792-13.708Z" transform="translate(-203.85 -126.971)"/><path class="cls-5" d="M385.73,239.376c-1.824-.809-3.511-1.878-5.261-2.829a40.685,40.685,0,0,0-4.217-1.925,12.639,12.639,0,0,0-2.9-.8,5.68,5.68,0,0,0-2.991-.134,5.576,5.576,0,0,0-2.788.89,8.388,8.388,0,0,0-3.447,4.482,7.591,7.591,0,0,0,.756,5.779l1.173,1.518a7.483,7.483,0,0,0,3.309,1.929,13.121,13.121,0,0,1,3.14.9l-1.792-.756c2.583,1.1,4.881,2.76,7.447,3.9a5.589,5.589,0,0,0,2.789.89,5.687,5.687,0,0,0,2.99-.134,7.654,7.654,0,0,0,4.483-3.447,7.575,7.575,0,0,0,.756-5.779l-.756-1.792a7.543,7.543,0,0,0-2.691-2.691Z" transform="translate(-203.85 -126.971)"/><path class="cls-5" d="M368.36,246.458q3.264,1.058,6.43,2.387L373,248.089c.206.087.413.175.619.264a5.579,5.579,0,0,0,2.788.89,7.7,7.7,0,0,0,7.473-3.581l.756-1.791a7.559,7.559,0,0,0,0-3.988l-.756-1.791a7.54,7.54,0,0,0-2.69-2.691c-2.907-1.25-5.83-2.432-8.841-3.407a5.68,5.68,0,0,0-2.991-.134,5.583,5.583,0,0,0-2.789.89,8.392,8.392,0,0,0-3.446,4.482l-.268,1.994a7.456,7.456,0,0,0,1.024,3.785l1.173,1.518a7.483,7.483,0,0,0,3.309,1.929Z" transform="translate(-203.85 -126.971)"/><path class="cls-5" d="M362.6,246.67c3.923,0,7.681-3.449,7.5-7.5a7.631,7.631,0,0,0-7.5-7.5c-3.923,0-7.681,3.45-7.5,7.5a7.63,7.63,0,0,0,7.5,7.5Z" transform="translate(-203.85 -126.971)"/><path class="cls-5" d="M366.481,230.208c1-.178-.624.03-.837.033-.48.008-.961-.009-1.441-.026a27.833,27.833,0,0,0-3.084-.029,24.359,24.359,0,0,0-6.463,1.622q-1.371.492-2.717,1.046c-.745.309-1.483.634-2.228.944.723-.3-.278.106-.469.178-2.12.807-4.4.941-6.405,2.048a4.543,4.543,0,0,0-1.615,6.156,4.593,4.593,0,0,0,6.157,1.615q.684-.369-.024,0c.249-.071.5-.132.753-.181.38-.081.765-.141,1.145-.224a17.961,17.961,0,0,0,2.77-.885c.749-.3,1.489-.618,2.231-.934.168-.071,1.288-.526.462-.2q1.353-.54,2.725-1.025c.931-.33,1.864-.683,2.814-.953.1-.027,1.471-.321.457-.173a10.915,10.915,0,0,1,1.637-.068,34.663,34.663,0,0,0,6.525-.268c2.323-.412,3.843-3.372,3.143-5.535a4.624,4.624,0,0,0-5.536-3.143Z" transform="translate(-203.85 -126.971)"/><path class="cls-5" d="M354.646,230.516a39.1,39.1,0,0,0-9.913,3.454c-1.313.721-2.686,1.4-3.968,2.163-1.957,1.171-3.08,3.265-4.135,5.21a4.5,4.5,0,0,0,7.771,4.542c.375-.691.764-1.373,1.177-2.042.173-.28.956-1.256.075-.192q.541-.5-.346.253.2-.119.408-.221c1.287-.66,2.529-1.391,3.8-2.074q.486-.261.985-.5c.166-.078.333-.153.5-.227q-.983.41-.314.139c.69-.252,1.376-.5,2.079-.717,1.407-.43,2.839-.772,4.27-1.113a4.542,4.542,0,0,0,3.143-5.536,4.6,4.6,0,0,0-5.536-3.143Z" transform="translate(-203.85 -126.971)"/><path class="cls-5" d="M337.088,238.107a23.083,23.083,0,0,0-2.913,2.128,14.521,14.521,0,0,0-2.276,2.8,20.311,20.311,0,0,0-1.435,2.318,15.25,15.25,0,0,1-1.238,2.37l.7-.911a15.085,15.085,0,0,1-1.1,1.229,4.664,4.664,0,0,0-1.318,3.182,4.578,4.578,0,0,0,1.318,3.182,4.526,4.526,0,0,0,3.182,1.318,4.636,4.636,0,0,0,3.182-1.318,19,19,0,0,0,1.95-2.339,11.706,11.706,0,0,0,.946-1.865,19.266,19.266,0,0,1,2.255-3.563l-.7.911a8.1,8.1,0,0,1,1.276-1.269l-.911.7c.521-.4,1.071-.758,1.626-1.111a4.724,4.724,0,0,0,2.068-2.689,4.6,4.6,0,0,0-.454-3.467,4.5,4.5,0,0,0-6.157-1.615Z" transform="translate(-203.85 -126.971)"/><path class="cls-5" d="M327.793,247.194a20.029,20.029,0,0,0-3.429,9.4,5.011,5.011,0,0,0,1.318,3.182,4.5,4.5,0,0,0,6.364,0l.7-.91a4.475,4.475,0,0,0,.614-2.272l.016-.122-.16,1.2a15.951,15.951,0,0,1,1.063-3.9l-.454,1.075a16.063,16.063,0,0,1,1.735-3.1,3.344,3.344,0,0,0,.534-1.673,3.412,3.412,0,0,0-.08-1.794,4.6,4.6,0,0,0-2.068-2.69,4.545,4.545,0,0,0-3.468-.453l-1.075.453a4.525,4.525,0,0,0-1.614,1.615Z" transform="translate(-203.85 -126.971)"/><path class="cls-5" d="M322.8,258.558c-.006,1.807-.094,3.613-.276,5.411-.09.893-.223,1.781-.313,2.674a14.358,14.358,0,0,0,.179,3.646,4.49,4.49,0,0,0,2.068,2.69,4.5,4.5,0,0,0,6.157-1.615l.453-1.075a4.516,4.516,0,0,0,0-2.392l-.03-.2.161,1.2a24.331,24.331,0,0,1,.346-5.128q.25-2.6.255-5.2a4.641,4.641,0,0,0-1.318-3.182,4.5,4.5,0,0,0-7.682,3.182Z" transform="translate(-203.85 -126.971)"/><path class="cls-5" d="M328.733,256.816c-1.823,4.711-2.985,10.139-1.174,15.044a4.834,4.834,0,0,0,2.068,2.69,4.6,4.6,0,0,0,3.467.453c2.159-.7,4.016-3.171,3.143-5.535a12.132,12.132,0,0,1-.638-2.6l.16,1.2a15.5,15.5,0,0,1,.047-3.807l-.161,1.2a28.572,28.572,0,0,1,1.767-6.243,4.525,4.525,0,0,0-.454-3.467,4.5,4.5,0,0,0-6.157-1.615,5.171,5.171,0,0,0-2.068,2.689Z" transform="translate(-203.85 -126.971)"/><path class="cls-5" d="M321.651,272.537a12.6,12.6,0,0,0,5.828,8.481c2.062,1.368,4.462,2.135,6.46,3.61a4.529,4.529,0,0,0,3.468.453,4.5,4.5,0,0,0,3.143-5.535l-.454-1.075a4.522,4.522,0,0,0-1.614-1.614c-2.229-1.645-4.963-2.424-7.162-4.114l.911.7a8.908,8.908,0,0,1-1.481-1.475l.7.911a8.663,8.663,0,0,1-1.009-1.725l.454,1.074a8.39,8.39,0,0,1-.568-2.088,4.487,4.487,0,0,0-2.068-2.689,4.5,4.5,0,0,0-6.157,1.614l-.454,1.075a4.54,4.54,0,0,0,0,2.393Z" transform="translate(-203.85 -126.971)"/><path class="cls-5" d="M323.017,280.1c1.925,3.421,5.407,5.066,8.621,7.015,3.609,2.19,7.607,4.019,11.905,2.8a4.5,4.5,0,1,0-2.393-8.678,7.967,7.967,0,0,1-.778.179l1.2-.16a7.5,7.5,0,0,1-1.858.006l1.2.161a13.409,13.409,0,0,1-1.828-.453c-.867-.256.829.422.056.033-.336-.169-.675-.331-1.006-.511-1.076-.586-2.1-1.259-3.163-1.869s-2.108-1.194-3.123-1.863c-.711-.468.845.719.035.03-.218-.186-.43-.379-.629-.584-.171-.175-.319-.372-.488-.547.907.937.237.273.026-.1a4.5,4.5,0,0,0-7.771,4.543Z" transform="translate(-203.85 -126.971)"/><path class="cls-5" d="M327,286.28a73.911,73.911,0,0,0,10.489,4.7q.642.255,1.282.515.319.131.638.264-.816-.346-.122-.049c.744.331,1.482.673,2.22,1.018a23.251,23.251,0,0,0,6.018,2.177,4.891,4.891,0,0,0,3.467-.453,4.583,4.583,0,0,0,2.068-2.69c.493-2.165-.658-5.131-3.143-5.535a16.144,16.144,0,0,1-2.687-.737q-.7-.282.1.052-.241-.105-.482-.215c-.375-.17-.747-.346-1.119-.52-1.817-.852-3.664-1.634-5.528-2.378-.748-.3-1.5-.592-2.249-.888-.428-.17-.856-.34-1.282-.513-.211-.086-1.647-.608-.517-.21a26.966,26.966,0,0,1-4.611-2.311A4.5,4.5,0,0,0,327,286.28Z" transform="translate(-203.85 -126.971)"/><path class="cls-5" d="M329.722,290.379c2.971,1.408,6.014,2.66,9.068,3.873,1.354.538,2.7,1.09,4.073,1.589a23.494,23.494,0,0,0,5.19,1.2,4.473,4.473,0,0,0,3.182-1.318,4.5,4.5,0,0,0,0-6.364,5.279,5.279,0,0,0-3.182-1.318L347.76,288l1.2.161a36.429,36.429,0,0,1-7.775-2.587q-.921-.366-1.84-.739-.566-.229-1.13-.463c-.268-.111-1.192-.421-.05-.018a41.776,41.776,0,0,1-3.9-1.746,4.838,4.838,0,0,0-3.468-.454,4.591,4.591,0,0,0-2.689,2.068c-1.058,2-.657,5.081,1.614,6.157Z" transform="translate(-203.85 -126.971)"/><path class="cls-5" d="M333.984,293.589a23.424,23.424,0,0,0,5.14,1.964,50.974,50.974,0,0,0,5.306.827l-1.2-.161a17.291,17.291,0,0,1,4.148.97l-1.075-.453a10.475,10.475,0,0,1,1,.494,4.5,4.5,0,1,0,4.542-7.771c-2.75-1.549-5.711-1.852-8.779-2.257l1.2.161a22.286,22.286,0,0,1-5.506-1.385l1.075.454q-.668-.284-1.311-.614a4.583,4.583,0,0,0-6.157,1.614c-1.088,2.059-.621,5.008,1.614,6.157Z" transform="translate(-203.85 -126.971)"/><path class="cls-5" d="M340.877,296.9a1.968,1.968,0,0,1,.224.076l-1.075-.454c.551.241,1,.645,1.549.9a9.915,9.915,0,0,0,1.869.718,16.094,16.094,0,0,0,1.91.287c1.3.149,2.631.11,3.939.137a4.5,4.5,0,0,0,4.5-4.5,4.557,4.557,0,0,0-1.318-3.182,4.762,4.762,0,0,0-3.182-1.318,37.147,37.147,0,0,1-4.06-.153l1.2.161a5.726,5.726,0,0,1-1.276-.328l1.074.454a6.15,6.15,0,0,1-.986-.568,7.449,7.449,0,0,0-1.972-.909,4.5,4.5,0,0,0-5.535,3.143,4.551,4.551,0,0,0,.453,3.467,4.787,4.787,0,0,0,2.69,2.068Z" transform="translate(-203.85 -126.971)"/><path class="cls-5" d="M351.689,298.935a13.134,13.134,0,0,0,4.257,0c.859-.13,1.7-.346,2.549-.517.352-.072.706-.136,1.06-.195q.354-.058.71-.109-.906.118-.128.023c.835-.08,1.668-.166,2.506-.223,1.656-.112,3.316-.156,4.972-.259a17.125,17.125,0,0,0,6.41-1.5c2.142-.993,2.845-4.248,1.615-6.157a4.627,4.627,0,0,0-6.157-1.614c1.068-.5-.019-.024-.3.049-.265.07-1.485.43-.252.108a10.051,10.051,0,0,1-1.973.148c-1.558.079-3.118.135-4.674.249a54.138,54.138,0,0,0-5.475.666c-.7.123-1.38.285-2.069.433a6.541,6.541,0,0,1-1.017.195c1.707-.089-1.351-.228.358.018a4.945,4.945,0,0,0-3.467.454,4.584,4.584,0,0,0-2.068,2.689c-.486,2.13.651,5.176,3.143,5.536Z" transform="translate(-203.85 -126.971)"/><path class="cls-5" d="M392.9,274.4l-4.014,1.7a8.859,8.859,0,0,0-4.23,3.687,4.672,4.672,0,0,0-.454,3.468,4.594,4.594,0,0,0,2.068,2.689,4.546,4.546,0,0,0,3.468.454,4.693,4.693,0,0,0,2.689-2.068,5.175,5.175,0,0,1,.348-.52l-.7.911a4.651,4.651,0,0,1,.737-.734l-.911.7a12.079,12.079,0,0,1,2.625-1.284l2.92-1.239a4.334,4.334,0,0,0,2.148-4.484,3.344,3.344,0,0,0-.534-1.673,4.542,4.542,0,0,0-2.689-2.068l-1.2-.161a4.475,4.475,0,0,0-2.271.614Z" transform="translate(-203.85 -126.971)"/><path class="cls-5" d="M390.628,277.546l-6.777,3.166a18.907,18.907,0,0,0-3.041,1.541,8.95,8.95,0,0,0-1.74,1.565,6.737,6.737,0,0,1-.939.971l.911-.7a3.445,3.445,0,0,1-.429.256A4.5,4.5,0,0,0,377,290.5a4.61,4.61,0,0,0,6.157,1.615,6.833,6.833,0,0,0,2-1.6,10.375,10.375,0,0,1,1.106-1.189l-.911.7a12.9,12.9,0,0,1,2.289-1.189l2.474-1.156,5.055-2.362a4.525,4.525,0,0,0,2.068-2.69,4.6,4.6,0,0,0-.453-3.467,4.541,4.541,0,0,0-2.69-2.068,5.089,5.089,0,0,0-3.467.454Z" transform="translate(-203.85 -126.971)"/><path class="cls-5" d="M376.53,295.682a6.346,6.346,0,0,0,1.8-.307,7.986,7.986,0,0,0,1.625-.762c.68-.468,1.286-1.019,1.935-1.524l-.91.7a3.582,3.582,0,0,1,.695-.431,4.332,4.332,0,0,0,2.148-4.483,3.35,3.35,0,0,0-.534-1.674l-.7-.91a4.5,4.5,0,0,0-1.986-1.158l-1.2-.16a4.475,4.475,0,0,0-2.272.614,3.184,3.184,0,0,0-.42.233c-.434.286-.836.625-1.243.946-.248.195-.483.407-.731.6l.911-.7a3.693,3.693,0,0,1-.787.482l1.075-.454a2.062,2.062,0,0,1-.506.138l1.2-.161q-.048.006-.1.009a4.626,4.626,0,0,0-4.5,4.5l.161,1.2a4.51,4.51,0,0,0,1.157,1.986l.911.7a4.485,4.485,0,0,0,2.271.615Z" transform="translate(-203.85 -126.971)"/><path class="cls-5" d="M386.532,281.1a21.954,21.954,0,0,0-3.782,1.413q-.653.3-1.274.664a8.051,8.051,0,0,0-1.394,1.025c-.033.031-.065.062-.1.1a7.978,7.978,0,0,0-.746.962,1.551,1.551,0,0,0-.085.141,9.27,9.27,0,0,0-.488,1.169,3.412,3.412,0,0,0-.08,1.794,3.344,3.344,0,0,0,.534,1.673,5.03,5.03,0,0,0,2.689,2.068l1.2.161a4.476,4.476,0,0,0,2.272-.615l.91-.7a4.5,4.5,0,0,0,1.158-1.986l.021-.063-.454,1.075a.978.978,0,0,1,.1-.172l-.7.911a1.483,1.483,0,0,1,.191-.189l-.911.7a10.193,10.193,0,0,1,2.17-1.148l-1.075.454a15.787,15.787,0,0,1,2.242-.753,5.038,5.038,0,0,0,2.689-2.069,3.344,3.344,0,0,0,.534-1.673,3.4,3.4,0,0,0-.08-1.794A4.549,4.549,0,0,0,390,281.554l-1.075-.454a4.536,4.536,0,0,0-2.392,0Z" transform="translate(-203.85 -126.971)"/></g><g id="Cara2"><path class="cls-6" d="M382.723,285.734a1.5,1.5,0,0,0,0-3,1.5,1.5,0,0,0,0,3Z" transform="translate(-203.85 -126.971)"/><path class="cls-6" d="M355.055,278.03l4.318,11.45a13.425,13.425,0,0,0,5.514,7.171,8.929,8.929,0,0,0,4.462,1.424,9.082,9.082,0,0,0,4.785-.214l2.867-1.21a12.05,12.05,0,0,0,4.305-4.305l1.209-2.866a12.075,12.075,0,0,0,0-6.38L378.2,271.65a13.432,13.432,0,0,0-5.514-7.172,8.939,8.939,0,0,0-4.462-1.424,9.093,9.093,0,0,0-4.785.215l-2.867,1.209a12.065,12.065,0,0,0-4.305,4.305l-1.209,2.867a12.075,12.075,0,0,0,0,6.38Z" transform="translate(-203.85 -126.971)"/><path class="cls-6" d="M384.591,290.815a20.835,20.835,0,0,1,4.5-2.619l-2.867,1.209a21.87,21.87,0,0,1,5.3-1.432l-3.19.429a21.32,21.32,0,0,1,5.483.01l-3.19-.429c.637.093,1.265.212,1.891.359a12.618,12.618,0,0,0,9.247-1.209A12,12,0,0,0,398.9,265.2a34.43,34.43,0,0,0-15.247-.115,35.281,35.281,0,0,0-7.051,2.551,20.323,20.323,0,0,0-4.125,2.456,11.556,11.556,0,0,0-5.729,11.956,8.929,8.929,0,0,0,1.424,4.462,12.115,12.115,0,0,0,7.171,5.515l3.19.428a11.942,11.942,0,0,0,6.057-1.638Z" transform="translate(-203.85 -126.971)"/><path class="cls-6" d="M374.108,276.581l-2.487,2.683a11.6,11.6,0,0,0-2.482,13.108,8.988,8.988,0,0,0,2.482,3.862l2.428,1.877a11.954,11.954,0,0,0,6.057,1.638l3.19-.429a11.987,11.987,0,0,0,5.3-3.086l2.487-2.683a11.6,11.6,0,0,0,2.482-13.108,8.988,8.988,0,0,0-2.482-3.862L388.65,274.7a11.954,11.954,0,0,0-6.057-1.638l-3.19.429a11.977,11.977,0,0,0-5.3,3.086Z" transform="translate(-203.85 -126.971)"/><path class="cls-6" d="M356.5,275.507a39.16,39.16,0,0,0-6.183,1.726,58.917,58.917,0,0,0-8.492,3.832,11.556,11.556,0,0,0-5.729,11.956,8.926,8.926,0,0,0,1.424,4.462l1.876,2.429a11.992,11.992,0,0,0,5.3,3.086l3.19.428a11.932,11.932,0,0,0,6.057-1.638,40.539,40.539,0,0,1,4.032-1.99l-2.866,1.21a39.524,39.524,0,0,1,7.776-2.358,13.42,13.42,0,0,0,7.171-5.515,8.923,8.923,0,0,0,1.424-4.461,9.082,9.082,0,0,0-.214-4.785l-1.21-2.867a12.05,12.05,0,0,0-4.3-4.305l-2.866-1.21a12.1,12.1,0,0,0-6.38,0Z" transform="translate(-203.85 -126.971)"/></g><g id="Pan"><path class="cls-7" d="M372.48,222.043a11.282,11.282,0,0,1,14.1,2.052,10.412,10.412,0,0,1,.8.957c.25.343.545,1.148.862,1.384l.1.195c.253-.289.313-.407.182-.353,0,0-.04,0-.041-.009-.024-.078-.615-.47-.723-.591-.714-.806-1.343-1.659-2.124-2.408a19.488,19.488,0,0,0-11.281-5.25,5.186,5.186,0,0,0-2.907.149c-1.282.675-1.226,2.177-.862,3.381a7.84,7.84,0,0,0,4.218,4.727,11.917,11.917,0,0,0,7.544.731c2.084-.454,5.677-1.712,5.642-4.321a1.531,1.531,0,0,0-1.1-1.447,6.5,6.5,0,0,0-6.576,1.976c-1.248,1.46.864,3.592,2.122,2.122a3.515,3.515,0,0,1,3.656-1.2l-1.1-1.446q.261-.36-.069,0c-.077.056-.156.108-.238.157a7.681,7.681,0,0,1-.924.518,9.171,9.171,0,0,1-1.62.6,9.449,9.449,0,0,1-3.8.272,6.936,6.936,0,0,1-3.36-1.355,4.74,4.74,0,0,1-1.064-1.2,4.275,4.275,0,0,1-.342-.662,5.128,5.128,0,0,1-.165-.542q-.035-.484-.1-.138l-.538.538c-.189.115.1.028.191.038.184.019.375.015.56.027.332.022.665.05,1,.095a16.193,16.193,0,0,1,2.324.511,16.44,16.44,0,0,1,3.989,1.774,16.108,16.108,0,0,1,3.473,2.869c1,1.093,1.824,2.578,3.37,2.971a2.935,2.935,0,0,0,3.6-1.851c.428-1.574-.825-3.193-1.736-4.361a14.389,14.389,0,0,0-7.443-5,14.568,14.568,0,0,0-11.122,1.5,1.5,1.5,0,0,0,1.514,2.59Z" transform="translate(-203.85 -126.971)"/><path class="cls-7" d="M380.4,205.373a37.256,37.256,0,0,0-10.8-2.307,29.03,29.03,0,0,0-6.721.713,29.843,29.843,0,0,0-4.061,1.148c-2.59.894-5.139,1.853-7.8,2.527a76.438,76.438,0,0,1-8.454,1.58l3.19-.428c-3.393.448-6.8.748-10.213,1.04-3.235.277-6.122,1.152-8.485,3.515a12,12,0,0,0,0,16.97c2.231,2.048,5.348,3.784,8.485,3.515a164.309,164.309,0,0,0,19.141-2.428,58.33,58.33,0,0,0,7.774-2.168,42.81,42.81,0,0,1,7.673-2.275l-3.19.428a15.676,15.676,0,0,1,4.037,0l-3.19-.429a35.134,35.134,0,0,1,6.234,1.747c2.815.992,6.741.256,9.247-1.21a12,12,0,0,0,4.305-16.418,13.338,13.338,0,0,0-7.172-5.515Z" transform="translate(-203.85 -126.971)"/><path class="cls-7" d="M322.55,214.477a49.563,49.563,0,0,0-8.494,10.424l-1.21,2.867a9.082,9.082,0,0,0-.214,4.785,11.4,11.4,0,0,0,3.3,6.89,14.291,14.291,0,0,0,5.295,3.086,9.093,9.093,0,0,0,4.785.214,8.926,8.926,0,0,0,4.462-1.424,75.771,75.771,0,0,1,8.146-5.437,12.21,12.21,0,0,0,5.515-7.172,12.419,12.419,0,0,0-.605-7.813,11.461,11.461,0,0,0-4.91-5.738,12.121,12.121,0,0,0-9.247-1.21,58.035,58.035,0,0,0-16.69,8.725c-3.389,2.558-6.438,5.371-8.186,9.346a33.785,33.785,0,0,0-2.194,6.054c-.279,1.209-.481,2.434-.679,3.658a9.1,9.1,0,0,0-.214,4.786,8.923,8.923,0,0,0,1.424,4.461,12,12,0,0,0,16.418,4.3c2.463-1.587,5.026-4.151,5.515-7.171a32.02,32.02,0,0,1,1.663-6.846l-1.21,2.866a13.581,13.581,0,0,1,1.526-2.717l-1.876,2.429a13.922,13.922,0,0,1,2.355-2.324L324.8,243.4a55.676,55.676,0,0,1,11.195-6.536l-2.866,1.21c.864-.365,1.736-.692,2.628-.98l-9.246-21.933a75.623,75.623,0,0,0-8.146,5.437l16.418,16.418q1.017-1.642,2.183-3.178l-1.876,2.429a38.761,38.761,0,0,1,4.435-4.818,12,12,0,0,0,0-16.97,12.072,12.072,0,0,0-8.485-3.515,12.967,12.967,0,0,0-8.486,3.515Z" transform="translate(-203.85 -126.971)"/><path class="cls-7" d="M297.318,256.6a22.6,22.6,0,0,0,.071,3.144c.144,1.54.365,3.078.607,4.6.084.528.188,1.053.308,1.574a13.42,13.42,0,0,0,5.515,7.171,8.926,8.926,0,0,0,4.462,1.424,9.082,9.082,0,0,0,4.785-.214l2.866-1.21a12.065,12.065,0,0,0,4.305-4.305l1.21-2.866a12.1,12.1,0,0,0,0-6.38q-.241-1.043-.386-2.1l.429,3.19a22.8,22.8,0,0,1-.172-4.029,11.582,11.582,0,0,0-7.376-10.967,9.038,9.038,0,0,0-4.624-1.033l-3.19.428a11.987,11.987,0,0,0-5.295,3.086l-1.876,2.429a11.945,11.945,0,0,0-1.639,6.057Z" transform="translate(-203.85 -126.971)"/><path class="cls-7" d="M321.826,270.887a12.666,12.666,0,0,1-.422-1.413,8.391,8.391,0,0,0-3.447-4.482,5.579,5.579,0,0,0-2.788-.89,5.67,5.67,0,0,0-2.991.134l-1.792.756a7.53,7.53,0,0,0-2.69,2.69l-.756,1.792a7.538,7.538,0,0,0,0,3.988,12.73,12.73,0,0,0,.422,1.413,8.392,8.392,0,0,0,3.446,4.482,5.583,5.583,0,0,0,2.789.89,5.691,5.691,0,0,0,2.991-.134l1.791-.756a7.543,7.543,0,0,0,2.691-2.691l.756-1.791a7.559,7.559,0,0,0,0-3.988Z" transform="translate(-203.85 -126.971)"/><path class="cls-7" d="M318.271,263.659l-.127-.065a5.579,5.579,0,0,0-2.788-.89,7.7,7.7,0,0,0-7.473,3.58l-.756,1.792a7.538,7.538,0,0,0,0,3.988l.756,1.791a7.532,7.532,0,0,0,2.69,2.691l.127.065a5.592,5.592,0,0,0,2.789.89,7.708,7.708,0,0,0,7.473-3.581l.756-1.792a7.555,7.555,0,0,0,0-3.987l-.756-1.792a7.532,7.532,0,0,0-2.691-2.69Z" transform="translate(-203.85 -126.971)"/><path class="cls-7" d="M306.808,269.664a9.4,9.4,0,0,0-.22,1.386,9.507,9.507,0,0,0-.153,1.4,7.275,7.275,0,0,0,.076.806c.087.66.178,1.32.266,1.98l.523,3.887a7.708,7.708,0,0,0,7.5,7.5l1.993-.268a7.486,7.486,0,0,0,3.31-1.929l1.173-1.518a7.474,7.474,0,0,0,1.024-3.785l-.483-3.594-.237-1.76a7.575,7.575,0,0,1-.126-1.719l-.268,1.994a3.033,3.033,0,0,1,.086-.389,5.68,5.68,0,0,0,.134-2.991,5.579,5.579,0,0,0-.89-2.788,8.378,8.378,0,0,0-4.482-3.447l-1.994-.268a7.466,7.466,0,0,0-3.785,1.024l-1.518,1.173a7.488,7.488,0,0,0-1.929,3.309Z" transform="translate(-203.85 -126.971)"/><path class="cls-7" d="M307.741,277.853c.2,1.82.446,3.64.764,5.444a8.4,8.4,0,0,0,3.447,4.482,5.583,5.583,0,0,0,2.789.89,5.677,5.677,0,0,0,2.99-.134l1.792-.756a7.543,7.543,0,0,0,2.691-2.691l.756-1.791a7.559,7.559,0,0,0,0-3.988q-.2-1.11-.347-2.229l.268,1.994q-.081-.611-.15-1.221a7.708,7.708,0,0,0-7.5-7.5l-1.993.268a7.493,7.493,0,0,0-3.31,1.928l-1.173,1.518a7.48,7.48,0,0,0-1.024,3.786Z" transform="translate(-203.85 -126.971)"/><path class="cls-7" d="M308.862,281.812a32.956,32.956,0,0,0,.47,3.414,13.747,13.747,0,0,0,.37,1.443,8.388,8.388,0,0,0,3.447,4.482,5.576,5.576,0,0,0,2.788.89,5.691,5.691,0,0,0,2.991-.134l1.791-.756a7.543,7.543,0,0,0,2.691-2.691l.756-1.791a7.559,7.559,0,0,0,0-3.988,13.765,13.765,0,0,1-.507-2.27l.268,1.993q-.038-.3-.065-.592a7.709,7.709,0,0,0-7.5-7.5l-1.994.268a7.5,7.5,0,0,0-3.31,1.929l-1.172,1.518a7.456,7.456,0,0,0-1.024,3.785Z" transform="translate(-203.85 -126.971)"/><path class="cls-7" d="M309.812,287.44c.776,2.052,1.627,4.075,2.5,6.086a7.224,7.224,0,0,0,7.473,3.581,5.583,5.583,0,0,0,2.789-.89l1.518-1.173a7.49,7.49,0,0,0,1.928-3.309l.268-1.994a7.454,7.454,0,0,0-1.024-3.785q-.217-.5-.431-1.008l.756,1.792q-.687-1.632-1.314-3.288a8.392,8.392,0,0,0-3.446-4.482,5.583,5.583,0,0,0-2.789-.89,5.691,5.691,0,0,0-2.991.134l-1.791.756a7.543,7.543,0,0,0-2.691,2.691l-.756,1.791a7.559,7.559,0,0,0,0,3.988Z" transform="translate(-203.85 -126.971)"/><path class="cls-7" d="M316.085,295.286c.27.7.562,1.413.884,2.092.056.119.117.234.183.348a7.028,7.028,0,0,0,.46.687c.7.936,1.435,1.83,2.148,2.75l-1.173-1.518a6.2,6.2,0,0,1,.813,1.316l-.756-1.791a3.424,3.424,0,0,1,.219.8l-.268-1.994.008.065a7.709,7.709,0,0,0,7.5,7.5l1.994-.268a7.5,7.5,0,0,0,3.309-1.929l1.173-1.518a7.459,7.459,0,0,0,1.024-3.785,11.61,11.61,0,0,0-.5-2.856,13.9,13.9,0,0,0-1.2-2.6c-.719-1.075-1.579-2.048-2.372-3.068l1.172,1.518a6.519,6.519,0,0,1-.864-1.4l.756,1.792c-.017-.04-.033-.081-.048-.122a8.388,8.388,0,0,0-3.447-4.482,5.579,5.579,0,0,0-2.788-.89,5.691,5.691,0,0,0-2.991.134l-1.791.756a7.543,7.543,0,0,0-2.691,2.691l-.756,1.791a7.559,7.559,0,0,0,0,3.988Z" transform="translate(-203.85 -126.971)"/><path class="cls-7" d="M312.68,298.1a45.288,45.288,0,0,0,4.807,7.274,37.165,37.165,0,0,0,4.788,5.094,7.946,7.946,0,0,0,5.3,2.2,7.634,7.634,0,0,0,5.3-2.2,7.551,7.551,0,0,0,2.2-5.3,7.475,7.475,0,0,0-2.2-5.3,36.928,36.928,0,0,1-4.789-5.093l1.173,1.518a36.959,36.959,0,0,1-3.634-5.757,7.225,7.225,0,0,0-7.473-3.58,5.583,5.583,0,0,0-2.789.89,7.565,7.565,0,0,0-3.446,4.482l-.268,1.994a7.459,7.459,0,0,0,1.024,3.785Z" transform="translate(-203.85 -126.971)"/><path class="cls-7" d="M312.651,296.53a18.162,18.162,0,0,0,.508,9.754,25.632,25.632,0,0,0,1.3,2.977,13.266,13.266,0,0,0,1.279,1.834,8.924,8.924,0,0,0,1.48,1.649,13.7,13.7,0,0,0,1.985,1.471,16.778,16.778,0,0,0,2.3.976,5.68,5.68,0,0,0,2.991.134,5.576,5.576,0,0,0,2.788-.89,8.388,8.388,0,0,0,3.447-4.482,7.594,7.594,0,0,0-.756-5.78l-1.173-1.517a7.483,7.483,0,0,0-3.309-1.929c-.089-.029-.176-.063-.262-.1l1.792.756a4.212,4.212,0,0,1-.717-.419l1.518,1.173a5.351,5.351,0,0,1-.895-.891l1.173,1.518a8.962,8.962,0,0,1-1.11-1.957l.756,1.791a11.279,11.279,0,0,1-.721-2.665l.268,1.994a11.237,11.237,0,0,1-.012-2.761l-.267,1.993q.043-.323.1-.643a5.691,5.691,0,0,0,.134-2.991,5.579,5.579,0,0,0-.89-2.788,8.4,8.4,0,0,0-4.482-3.447,7.6,7.6,0,0,0-5.78.756,7.375,7.375,0,0,0-3.446,4.483Z" transform="translate(-203.85 -126.971)"/><path class="cls-7" d="M315.685,312.4c.649,4.173,5.066,7.039,9.039,7.19,3.055.116,5.526-1.311,8.225-2.482l-1.792.756a33.507,33.507,0,0,1,8.287-2.265l-1.994.268c4.142-.518,8.3-.1,12.454-.272a61.42,61.42,0,0,0,13.761-2.127c3.781-1.042,6.486-5.372,5.239-9.226A7.636,7.636,0,0,0,359.678,299a54.918,54.918,0,0,1-6.872,1.426l1.994-.268c-5.033.667-10.032.182-15.073.487a41.685,41.685,0,0,0-8.709,1.4,64.743,64.743,0,0,0-8.071,3.215l1.792-.757a7.245,7.245,0,0,1-1.241.35l1.994-.268a2.707,2.707,0,0,1-.768,0l1.994.268a2.532,2.532,0,0,1-.659-.193l1.792.756q-1.668-.951,1.712,1.823l.756,1.791a1.426,1.426,0,0,1-.17-.623,7.5,7.5,0,0,0-3.447-4.482,7.5,7.5,0,0,0-10.261,2.691,8.664,8.664,0,0,0-.756,5.779Z" transform="translate(-203.85 -126.971)"/><path class="cls-7" d="M402.262,288.7c.372-.288,1.4-1.021.4-.368q-.409.267-.834.508c-.567.32-1.154.6-1.749.862l1.792-.756c-4.807,2.013-10.15,2.612-15.137,4.081-5.769,1.7-11.714,2.437-17.646,3.338a7.5,7.5,0,0,0-4.482,3.447,7.5,7.5,0,0,0,2.691,10.261,8.707,8.707,0,0,0,5.779.756c3.434-.521,6.879-1,10.3-1.591,3.5-.609,6.836-1.663,10.255-2.585,2.872-.774,5.815-1.246,8.683-2.033a37.8,37.8,0,0,0,5.514-2.045,24.818,24.818,0,0,0,5.04-3.269c1.407-1.091,2.2-3.62,2.2-5.3a7.629,7.629,0,0,0-2.2-5.3,7.544,7.544,0,0,0-5.3-2.2,8.823,8.823,0,0,0-5.3,2.2Z" transform="translate(-203.85 -126.971)"/><path class="cls-7" d="M367.961,297.422a25.953,25.953,0,0,1-6.508,1.767l1.993-.268c-.126.017-.253.033-.38.048a7.708,7.708,0,0,0-7.5,7.5l.268,1.994a7.507,7.507,0,0,0,1.929,3.309l1.518,1.173a7.469,7.469,0,0,0,3.785,1.024,40.661,40.661,0,0,0,5.441-.918,25.952,25.952,0,0,0,3.442-1.165,8.383,8.383,0,0,0,4.482-3.446,5.583,5.583,0,0,0,.89-2.789,5.68,5.68,0,0,0-.134-2.991l-.756-1.791a7.54,7.54,0,0,0-2.69-2.691l-1.792-.756a7.559,7.559,0,0,0-3.988,0Z" transform="translate(-203.85 -126.971)"/><path class="cls-7" d="M334.342,312.074a18.789,18.789,0,0,1,2.066.16l-1.994-.268a18.544,18.544,0,0,1,3.806.945,5.666,5.666,0,0,0,2.99.134,5.573,5.573,0,0,0,2.789-.89,8.383,8.383,0,0,0,3.446-4.482l.268-1.994a7.459,7.459,0,0,0-1.024-3.785l-1.172-1.518a7.5,7.5,0,0,0-3.31-1.929,18.285,18.285,0,0,0-2.943-.807c-1.123-.208-2.262-.353-3.4-.471-.506-.053-1.015-.084-1.524-.095a7.708,7.708,0,0,0-7.5,7.5l.268,1.994a7.488,7.488,0,0,0,1.929,3.309l1.518,1.173a7.464,7.464,0,0,0,3.785,1.024Z" transform="translate(-203.85 -126.971)"/><path class="cls-7" d="M327.057,306.458c.147.137.3.269.455.395.645.516,1.292,1.042,1.974,1.511a7.893,7.893,0,0,0,1.074.619,14.512,14.512,0,0,0,4.093,1.445,5.687,5.687,0,0,0,2.99.134,5.592,5.592,0,0,0,2.789-.89,8.4,8.4,0,0,0,3.447-4.483l.267-1.994a7.459,7.459,0,0,0-1.024-3.785l-1.172-1.518a7.5,7.5,0,0,0-3.31-1.929,7.977,7.977,0,0,1-1.977-.543l1.791.756a8.158,8.158,0,0,1-1.77-1.036l1.518,1.172c-.186-.146-.365-.3-.539-.46a7.711,7.711,0,0,0-10.606,0l-1.173,1.518a7.454,7.454,0,0,0-1.024,3.785l.268,1.994a7.488,7.488,0,0,0,1.929,3.309Z" transform="translate(-203.85 -126.971)"/><path class="cls-7" d="M355.443,299.013a7.781,7.781,0,0,1-2.971.305q-1.767-.009-3.531-.1c-1.127-.062-2.257-.138-3.379-.265a7,7,0,0,1-1.424-.252,1.73,1.73,0,0,1-.882-.7L341.8,300.5c1.624.641,3.431.186,5.057.882l1.156-2.742-6.514-.919a1.551,1.551,0,0,0-1.845,1.048,1.511,1.511,0,0,0,1.048,1.845l6.513.919a1.528,1.528,0,0,0,1.77-.869,1.484,1.484,0,0,0-.614-1.873,10.43,10.43,0,0,0-3.154-.843,9.3,9.3,0,0,1-2.62-.341,1.506,1.506,0,0,0-1.694.689,1.569,1.569,0,0,0,.235,1.818c1.664,2.067,4.821,1.916,7.241,2.066q1.976.123,3.955.137a10.4,10.4,0,0,0,3.909-.413,1.546,1.546,0,0,0,1.048-1.845,1.511,1.511,0,0,0-1.845-1.047Z" transform="translate(-203.85 -126.971)"/><path class="cls-7" d="M407.83,295l.057.039-2.153-2.153.039.053-.605-1.433.023.063-.215-1.6a.315.315,0,0,1,0,.14l.214-1.6-.023.067.6-1.433-.037.061.938-1.214-.05.049,1.215-.938-.062.034,1.433-.6-.089.019,1.6-.214-.089-.007,1.595.215-.086-.028,1.434.6-.08-.047,1.214.938-.07-.062.938,1.214a.463.463,0,0,1-.1-.159l-.938-1.214-1.214-.938-1.433-.605a4.543,4.543,0,0,0-2.393-.107,5.927,5.927,0,0,0-3.914,2.257,4.51,4.51,0,0,0-1.074,2.041l-.2.912h11.571q-.09-.474-.157-.953l.214,1.6a27.137,27.137,0,0,1-.215-2.819c-.027-.93-.072-1.883-.011-2.811l-.214,1.6a.778.778,0,0,1,.062-.242l-.6,1.433.052-.088-.938,1.215.069-.076-1.215.938.083-.057-1.433.605.092-.034-1.6.215.1,0-6-6,0,.106.214-1.595a1.243,1.243,0,0,1-.087.3l.605-1.433a.981.981,0,0,1-.113.179l.938-1.215a.919.919,0,0,1-.151.148l1.214-.938-.088.059a5.783,5.783,0,0,0-2.865,5.978,4.478,4.478,0,0,0,.712,2.231,6,6,0,0,0,8.21,2.153,7.316,7.316,0,0,0,2.479-2.492,7.024,7.024,0,0,0,.936-3.485,6.681,6.681,0,0,0-1.757-4.243,6.065,6.065,0,0,0-4.243-1.757,6.461,6.461,0,0,0-3.219.856,6.543,6.543,0,0,0-2.3,2.286,7.2,7.2,0,0,0-.943,3.749c0,.692,0,1.383.012,2.074a34.771,34.771,0,0,0,.6,5.712l.6,1.433a4.532,4.532,0,0,0,1.546,1.684,2.984,2.984,0,0,0,1.324.771,4.515,4.515,0,0,0,2.311.517l1.595-.214,1.434-.6a6.721,6.721,0,0,0,2.757-3.586l.2-.912-10.966,1.433a6.288,6.288,0,0,0,3.918,3.053,6.288,6.288,0,0,0,4.858-11.486,4.468,4.468,0,0,0-2.231-.712,6.161,6.161,0,0,0-5.978,2.865,6.052,6.052,0,0,0-.605,4.623l.605,1.433A6.033,6.033,0,0,0,407.83,295Z" transform="translate(-203.85 -126.971)"/><path class="cls-7" d="M401.84,280.076a22.676,22.676,0,0,1-1.576,2.472l.938-1.215a8.585,8.585,0,0,1-1.445,1.438l1.215-.938c-1.142.814-2.452,1.339-3.608,2.13-1.507,1.033-2.737,2.34-4.162,3.462l1.214-.938a8.718,8.718,0,0,1-1.627.946l1.434-.6c-2.966,1.23-5.913,2.253-8.545,4.14a6.476,6.476,0,0,0-2.758,3.586,6.133,6.133,0,0,0,.6,4.623c1.627,2.523,5.482,4.109,8.209,2.153a23.662,23.662,0,0,1,4.369-2.479l-1.434.605c1.808-.756,3.809-1.239,5.442-2.348,1.556-1.057,2.814-2.4,4.284-3.546l-1.215.938a18.179,18.179,0,0,1,2.186-1.3,15.352,15.352,0,0,0,6.835-7.066,6,6,0,1,0-10.361-6.057Z" transform="translate(-203.85 -126.971)"/><path class="cls-7" d="M385.021,304.085a6,6,0,1,0-6-6,6.067,6.067,0,0,0,6,6Z" transform="translate(-203.85 -126.971)"/><path class="cls-7" d="M404.962,273.424c-.3.184-.587.371-.87.574-.539.387-1.063.8-1.581,1.216-.135.108-.266.22-.391.338s-.23.225-.336.346c-.06.067-.116.137-.172.207-.353.447-.716.894-1.045,1.359a3.619,3.619,0,0,0-.265.434c-.307.6-.535,1.239-.794,1.859l.6-1.433a2.306,2.306,0,0,1-.237.447l.938-1.214a1.266,1.266,0,0,1-.151.16l1.215-.938a16,16,0,0,0-1.591,1.227,5.532,5.532,0,0,0-.484.624c-.173.208-.337.422-.5.642a5.477,5.477,0,0,0-.63,1.488,6.257,6.257,0,0,0,0,3.331,6.186,6.186,0,0,0,7.38,4.191l1.434-.6a6.033,6.033,0,0,0,2.152-2.153l.6-1.433a6.037,6.037,0,0,0,0-3.19l-.013-.042.215,1.6a.2.2,0,0,1,0-.08l-.214,1.595.013-.037-.605,1.433a.273.273,0,0,1,.044-.071l-.938,1.214a.945.945,0,0,1,.1-.1l-1.214.938c.086-.067.178-.127.267-.191a6.972,6.972,0,0,0,2.326-2.329,2.144,2.144,0,0,0,.168-.29c.27-.573.5-1.165.74-1.749l-.6,1.433a3.968,3.968,0,0,1,.477-.822l-.938,1.214a5.772,5.772,0,0,1,1.038-1.01l-1.215.939c.358-.274.735-.52,1.117-.757a5.78,5.78,0,0,0,2.864-5.979,4.455,4.455,0,0,0-.712-2.23l-.938-1.215a6,6,0,0,0-2.648-1.543l-1.595-.214a5.965,5.965,0,0,0-3.028.819Z" transform="translate(-203.85 -126.971)"/><path class="cls-7" d="M403.4,289.915a6,6,0,1,0-6-6,6.067,6.067,0,0,0,6,6Z" transform="translate(-203.85 -126.971)"/><path class="cls-7" d="M399.868,280.208l-.127.064a5.779,5.779,0,0,0-2.865,5.979,4.474,4.474,0,0,0,.712,2.23l.938,1.215a6.005,6.005,0,0,0,2.648,1.543l1.6.214a5.963,5.963,0,0,0,3.028-.819l.128-.064a5.783,5.783,0,0,0,2.865-5.978,4.466,4.466,0,0,0-.713-2.231l-.938-1.215a6,6,0,0,0-2.647-1.543l-1.6-.214a5.969,5.969,0,0,0-3.029.819Z" transform="translate(-203.85 -126.971)"/><path class="cls-7" d="M409.726,270.2a.26.26,0,0,1-.047-.016l1.433.6a.411.411,0,0,1-.086-.05l1.215.938a.415.415,0,0,1-.076-.075l.938,1.214a.457.457,0,0,1-.061-.1l.605,1.433a.511.511,0,0,1-.03-.11l.214,1.6a.426.426,0,0,1,0-.107l-.215,1.6a.4.4,0,0,1,.027-.1l-.6,1.434,0-.007a4.468,4.468,0,0,0,.712-2.231,6.161,6.161,0,0,0-2.865-5.978l-1.433-.6a6.037,6.037,0,0,0-3.19,0l-1.433.6a6.028,6.028,0,0,0-2.153,2.153,13.986,13.986,0,0,0-.62,1.473.369.369,0,0,0-.011.045,15.787,15.787,0,0,0-.219,1.634.268.268,0,0,0,0,.049,6.439,6.439,0,0,0,.861,3.194.53.53,0,0,0,.048.08,14.528,14.528,0,0,0,.966,1.248l.03.03a14.918,14.918,0,0,0,1.248.964.361.361,0,0,0,.036.023l.025.013c.469.216,1.808.75,1.447.611a.368.368,0,0,0,.047.015,4.553,4.553,0,0,0,2.393.108,4.481,4.481,0,0,0,2.231-.712,6.721,6.721,0,0,0,2.757-3.586l.214-1.6a5.969,5.969,0,0,0-.819-3.029l-.938-1.214a5.99,5.99,0,0,0-2.648-1.543Z" transform="translate(-203.85 -126.971)"/><path class="cls-7" d="M407.107,273.282l.113.015-1.2-.161a2.2,2.2,0,0,1,.434.132l-1.075-.454a2.557,2.557,0,0,1,.3.173l-.911-.7a.686.686,0,0,1,.139.13l-.7-.911.047.08-.453-1.075.021.089V268.2l-.012.074.453-1.075-.039.064.7-.91-.057.046,1.985-1.158-.066.019h2.392l-.066-.019L411.1,266.4l-.052-.059,1.157,1.986-.025-.079.161,1.2c-.026-.236-.033-.474-.047-.71l-.16-1.2a3.389,3.389,0,0,0-.806-1.53,2.256,2.256,0,0,0-.807-.808,3.4,3.4,0,0,0-1.53-.805,5.37,5.37,0,0,0-2.393,0,4.659,4.659,0,0,0-2.689,2.068l-.038.058,1.614-1.615-.061.035,1.075-.454-.072.011h2.393l-.071-.016,1.075.454-.079-.054.911.7-.061-.075.7.911-.046-.086.454,1.075a1.85,1.85,0,0,1-.114-.426l.161,1.2a11.916,11.916,0,0,0-.334-2.767c-.306-.895-.757-1.689-1.137-2.544l.454,1.075a2.244,2.244,0,0,1-.13-.425l.161,1.2a15.742,15.742,0,0,1,.025-1.868,4.5,4.5,0,0,0-4.5-4.5,4.553,4.553,0,0,0-3.182,1.318,4.774,4.774,0,0,0-1.318,3.182,10.886,10.886,0,0,0,.157,3.173,21.084,21.084,0,0,0,1.164,2.644l-.454-1.075a3.351,3.351,0,0,1,.213.772l-.161-1.2c.028.3.011.6.031.9a6.3,6.3,0,0,0,.739,2.807,4.846,4.846,0,0,0,2.946,2.3,4.676,4.676,0,0,0,5.253-2.171l-8.386-2.271c.014.223.025.446.042.668a6.748,6.748,0,0,0,.19,1.316,3.4,3.4,0,0,0,.806,1.531,5.13,5.13,0,0,0,.4.514,4.626,4.626,0,0,0,6.5,0,4.209,4.209,0,0,0,.781-.989,4.9,4.9,0,0,0,.475-3.618,4.719,4.719,0,0,0-1.355-2.24,7.284,7.284,0,0,0-1.054-.8,8.89,8.89,0,0,0-1.226-.533,7.064,7.064,0,0,0-1.744-.308,5.011,5.011,0,0,0-3.182,1.318,4.5,4.5,0,0,0,0,6.364l.911.7a4.475,4.475,0,0,0,2.271.614Z" transform="translate(-203.85 -126.971)"/><path class="cls-7" d="M402.518,257.515a5.032,5.032,0,0,0-.686,2.5.793.793,0,0,0,.006.146,11.057,11.057,0,0,0,.188,1.334,5.514,5.514,0,0,1,.174.628l-.161-1.2a.815.815,0,0,1,0,.171l.161-1.2a.582.582,0,0,1-.03.116l.454-1.075a.594.594,0,0,1-.033.067h7.772a21.322,21.322,0,0,0-1.4-1.924,5.547,5.547,0,0,0-1.091-.878,6.966,6.966,0,0,0-1.275-.565,1.617,1.617,0,0,0-.255-.074,13.737,13.737,0,0,0-1.415-.19,4.757,4.757,0,0,0-1.664.154,5.073,5.073,0,0,0-1.147.483,4.685,4.685,0,0,0-1.649,1.649,4.63,4.63,0,0,0-.63,2.325,5.225,5.225,0,0,0,.172,1.273,9.007,9.007,0,0,0,.425,1.2,4.641,4.641,0,0,0,5.536,3.143l1.075-.454a4.522,4.522,0,0,0,1.614-1.614l.454-1.075a4.536,4.536,0,0,0,0-2.392q-.129-.31-.24-.628a4.542,4.542,0,0,1-.195-.623l.16,1.2v-.031l-.161,1.2.006-.03-.454,1.075.011-.023-.7.91a.126.126,0,0,1,.034-.035l-.911.7.022-.013-1.075.454a.432.432,0,0,1,.078-.022l-1.2.161a2.435,2.435,0,0,1,.559.025l-1.2-.161a1.616,1.616,0,0,1,.354.091l-1.075-.454a1.116,1.116,0,0,1,.227.131l-.911-.7a1.179,1.179,0,0,1,.177.183l-.7-.911c.24.315.449.656.67.984a4.52,4.52,0,0,0,1.615,1.615,4.5,4.5,0,0,0,6.157-1.615,5.169,5.169,0,0,0,.485-3.971c-.052-.207-.14-.4-.172-.615l.161,1.2a.741.741,0,0,1,0-.194l-.161,1.2a.578.578,0,0,1,.032-.115l-.454,1.075c.011-.022.022-.044.035-.065a3.347,3.347,0,0,0,.534-1.673,4.622,4.622,0,0,0-2.149-4.484l-1.075-.454a4.536,4.536,0,0,0-2.392,0l-1.075.454a4.522,4.522,0,0,0-1.614,1.614Z" transform="translate(-203.85 -126.971)"/><path class="cls-7" d="M407.149,254l-.04-.052.7.91a3.793,3.793,0,0,1-.447-.792l.453,1.075a14.963,14.963,0,0,1-.588-2.215c-.021-.087-.04-.175-.067-.26-.069-.214-.184-.45-.262-.634a3.981,3.981,0,0,0-.3-.652l-.7-.911-.043-.043-.91-.7-.048-.036a6.689,6.689,0,0,0-1.269-.543c-.44-.153-.894-.275-1.34-.412a4.5,4.5,0,0,0-5.536,5.536,2.3,2.3,0,0,1,.125.5l-.16-1.2c.082.617.136,1.235.241,1.85a2,2,0,0,0,.086.341,12.48,12.48,0,0,0,.489,1.163c.029.059.058.114.092.169a6.115,6.115,0,0,0,.859,1.1c.043.043.09.08.137.119.323.264.663.543,1.01.775a3.952,3.952,0,0,0,.608.31,3.367,3.367,0,0,0,1.673.534,4.622,4.622,0,0,0,4.484-2.149l.454-1.075a4.536,4.536,0,0,0,0-2.392l-.454-1.075a4.525,4.525,0,0,0-1.614-1.615,3.578,3.578,0,0,1-.708-.381l.911.7a1.556,1.556,0,0,1-.257-.256l.7.911a1.508,1.508,0,0,1-.128-.219l.454,1.075a2.237,2.237,0,0,1-.141-.559l.161,1.2c-.047-.375-.091-.748-.142-1.123a4.867,4.867,0,0,0-.2-1.1l-5.536,5.536c.473.145.966.264,1.427.444l-1.075-.453a.833.833,0,0,1,.155.092l-.911-.7.043.043-.7-.911a.469.469,0,0,1,.071.115l-.454-1.075a5.994,5.994,0,0,1,.227.91c.069.316.137.632.223.944a13.7,13.7,0,0,0,.733,1.882,8.3,8.3,0,0,0,1.153,1.666,4.629,4.629,0,0,0,6.364,0l.7-.911a4.475,4.475,0,0,0,.614-2.271l-.161-1.2A4.48,4.48,0,0,0,407.149,254Z" transform="translate(-203.85 -126.971)"/><path class="cls-7" d="M409.443,253.568q-1.932-4.3-4.016-8.535c-1.367-2.772-2.722-5.58-4.948-7.786a4.5,4.5,0,0,0-6.364,6.364c.244.241.467.5.7.748q.446.544-.226-.309.153.206.3.417c.341.495.651,1.01.944,1.535.7,1.254,1.323,2.553,1.957,3.842q2.014,4.1,3.884,8.267a4.516,4.516,0,0,0,2.69,2.068,4.6,4.6,0,0,0,3.467-.454,4.539,4.539,0,0,0,2.068-2.689,5.171,5.171,0,0,0-.454-3.468Z" transform="translate(-203.85 -126.971)"/><path class="cls-7" d="M408.3,245.092a115.658,115.658,0,0,0-8.825-11.551c-3-3.555-5.961-7.018-10.13-9.249a4.5,4.5,0,1,0-4.542,7.771,23.789,23.789,0,0,1,2.473,1.54c.686.483-.421-.377-.015-.009.16.145.332.278.494.42.384.337.755.689,1.114,1.051,1.511,1.521,2.862,3.2,4.242,4.84s2.741,3.3,4.07,4.981c.407.515-.442-.587-.049-.062.179.238.36.474.538.712q.482.644.95,1.3.988,1.377,1.909,2.8a4.5,4.5,0,1,0,7.771-4.542Z" transform="translate(-203.85 -126.971)"/><path class="cls-7" d="M364.722,230.645a32.573,32.573,0,0,1,5.093.153c.881.089,1.76.2,2.639.308.407.051.813.105,1.22.156,1,.127-.665-.094.428.057q5.075.7,10.121,1.577c2.31.4,4.96-.618,5.535-3.143.5-2.188-.663-5.1-3.143-5.536q-5.247-.915-10.527-1.632a59.748,59.748,0,0,0-11.366-.94c-2.346.134-4.613,1.974-4.5,4.5.1,2.323,1.983,4.644,4.5,4.5Z" transform="translate(-203.85 -126.971)"/><path class="cls-7" d="M377.2,233.546a52.388,52.388,0,0,1,7.939,2.615l-1.075-.454q1.734.737,3.411,1.593a4.772,4.772,0,0,0,3.468.454,4.589,4.589,0,0,0,2.689-2.069c1.085-2.054.624-5.014-1.614-6.156a57.1,57.1,0,0,0-12.426-4.662,4.717,4.717,0,0,0-3.467.454,4.5,4.5,0,0,0,1.075,8.225Z" transform="translate(-203.85 -126.971)"/><path class="cls-7" d="M382.276,236.328q4.44,3.23,9.127,6.094a4.5,4.5,0,0,0,6.157-1.614,4.546,4.546,0,0,0,.454-3.468,4.78,4.78,0,0,0-2.068-2.689q-4.685-2.864-9.128-6.095a4.531,4.531,0,0,0-3.467-.453,4.588,4.588,0,0,0-2.69,2.068,4.543,4.543,0,0,0-.453,3.467l.453,1.075a4.528,4.528,0,0,0,1.615,1.615Z" transform="translate(-203.85 -126.971)"/><path class="cls-7" d="M388.088,239.353c1.249,1.594,2.965,2.739,4.217,4.33l-.7-.91a7.391,7.391,0,0,1,.911,1.5l-.454-1.075c.067.16.128.321.183.485a4.756,4.756,0,0,0,2.068,2.69,3.344,3.344,0,0,0,1.673.534,3.4,3.4,0,0,0,1.794-.081,4.5,4.5,0,0,0,3.143-5.535,10.384,10.384,0,0,0-1.359-2.814,18.526,18.526,0,0,0-1.979-2.367,34.846,34.846,0,0,1-3.131-3.125,4.628,4.628,0,0,0-6.363,0,4.528,4.528,0,0,0-1.319,3.182l.161,1.2a4.5,4.5,0,0,0,1.158,1.986Z" transform="translate(-203.85 -126.971)"/><path class="cls-7" d="M389.741,242.712c1.427,1.952,2.909,3.867,4.479,5.707a4.629,4.629,0,0,0,6.364,0,4.533,4.533,0,0,0,1.318-3.182l-.161-1.2a4.5,4.5,0,0,0-1.157-1.986q-1.219-1.428-2.367-2.914l.7.911c-.478-.621-.945-1.25-1.408-1.882a4.336,4.336,0,0,0-4.483-2.149,3.344,3.344,0,0,0-1.673.534,4.541,4.541,0,0,0-2.068,2.69l-.161,1.2a4.475,4.475,0,0,0,.614,2.271Z" transform="translate(-203.85 -126.971)"/><path class="cls-7" d="M393.174,246.7a14.72,14.72,0,0,0,.55,2.949c.211.633.487,1.25.756,1.857a9.03,9.03,0,0,0,.437.854,4.333,4.333,0,0,0,4.484,2.148,3.35,3.35,0,0,0,1.673-.534l.91-.7a4.5,4.5,0,0,0,1.158-1.986l.16-1.2a4.475,4.475,0,0,0-.614-2.272,9.376,9.376,0,0,1-.508-1.018l.454,1.075a8.919,8.919,0,0,1-.6-2.191l.16,1.2c-.008-.06-.015-.119-.022-.179a4.626,4.626,0,0,0-4.5-4.5l-1.2.161a4.493,4.493,0,0,0-1.985,1.158l-.7.91a4.475,4.475,0,0,0-.614,2.271Z" transform="translate(-203.85 -126.971)"/><path class="cls-7" d="M395.381,254.408l.049.063-.7-.911a6,6,0,0,1,.64,1.032,4.336,4.336,0,0,0,4.483,2.149,3.35,3.35,0,0,0,1.674-.534l.91-.7a4.491,4.491,0,0,0,1.158-1.986l.16-1.2a4.475,4.475,0,0,0-.614-2.271,6.086,6.086,0,0,0-.319-.575c-.057-.09-.116-.178-.178-.265l-.1-.137q-.392-.518-.8-1.029a4.629,4.629,0,0,0-6.364,0l-.7.911a4.475,4.475,0,0,0-.614,2.271l.16,1.2a4.493,4.493,0,0,0,1.158,1.985Z" transform="translate(-203.85 -126.971)"/><path class="cls-7" d="M390.966,245.477c.047.057.094.115.139.173l-.7-.91c1,1.3,1.468,2.914,2.393,4.263a4.337,4.337,0,0,0,4.484,2.149,3.35,3.35,0,0,0,1.673-.534l.91-.7a4.491,4.491,0,0,0,1.158-1.986l.16-1.2a4.475,4.475,0,0,0-.614-2.271,17.628,17.628,0,0,1-1.237-2.287c-.185-.377-.373-.753-.585-1.117a14.885,14.885,0,0,0-1.414-1.944,4.629,4.629,0,0,0-6.364,0l-.7.911a4.485,4.485,0,0,0-.615,2.271l.161,1.2a4.5,4.5,0,0,0,1.157,1.986Z" transform="translate(-203.85 -126.971)"/><path class="cls-7" d="M390.719,244.1a4.222,4.222,0,0,1,.55.172l-1.075-.454a1.548,1.548,0,0,1,.338.193l-.91-.7a1.318,1.318,0,0,1,.2.206l-.7-.911a4.854,4.854,0,0,1,.426.774l.442.889a4.334,4.334,0,0,0,4.484,2.148,3.344,3.344,0,0,0,1.673-.534l.911-.7a4.491,4.491,0,0,0,1.157-1.986l.161-1.2a4.475,4.475,0,0,0-.614-2.272l-.413-.829a7.091,7.091,0,0,0-.381-.728,12.028,12.028,0,0,0-.789-1.03,1.223,1.223,0,0,0-.125-.134,9.583,9.583,0,0,0-1.035-.8,1.556,1.556,0,0,0-.152-.09c-.026-.014-.053-.027-.08-.039-.365-.165-.752-.325-1.124-.475-.056-.022-.112-.044-.169-.063-.125-.042-.254-.075-.382-.108a3.4,3.4,0,0,0-1.794-.08,3.344,3.344,0,0,0-1.673.534,5.03,5.03,0,0,0-2.068,2.689l-.161,1.2a4.469,4.469,0,0,0,.614,2.271l.7.911a4.48,4.48,0,0,0,1.986,1.157Z" transform="translate(-203.85 -126.971)"/><path class="cls-7" d="M396.862,237.256l.081.785,8.385-2.272q-4.608-6.4-8.772-13.105a94.129,94.129,0,0,0-8.878-12.831,4.526,4.526,0,0,0-6.364,0,4.609,4.609,0,0,0,0,6.364c.4.453.782.915,1.167,1.379q.5.63.13.157.273.36.539.724c.711.974,1.387,1.972,2.044,2.983,1.322,2.032,2.562,4.115,3.843,6.173q4.043,6.494,8.52,12.7a4.641,4.641,0,0,0,5.082,2.068c1.753-.567,3.509-2.339,3.3-4.339l-.081-.785c-.241-2.335-1.9-4.617-4.5-4.5-2.232.1-4.758,1.992-4.5,4.5Z" transform="translate(-203.85 -126.971)"/><path class="cls-7" d="M404.164,230.556a17.651,17.651,0,0,1-1.012-2.033l.453,1.075c-.749-1.81-1.311-3.69-2.05-5.5a58.144,58.144,0,0,0-2.951-6.27,4.545,4.545,0,0,0-6.157-1.614,4.591,4.591,0,0,0-1.614,6.157,49.458,49.458,0,0,1,2.271,4.651l-.453-1.075c1.271,3.032,2.068,6.3,3.742,9.156a4.5,4.5,0,1,0,7.771-4.543Z" transform="translate(-203.85 -126.971)"/><path class="cls-7" d="M399.517,216.587a1.729,1.729,0,0,1-.375-.093l1.075.453a2.967,2.967,0,0,1-.5-.272l.911.7a4.806,4.806,0,0,1-.83-.862l.7.91a44.973,44.973,0,0,0-3.089-3.976,27.453,27.453,0,0,0-3.965-3.429,24.961,24.961,0,0,0-8.545-3.982,4.5,4.5,0,1,0-2.393,8.678,22.455,22.455,0,0,1,3.023,1l-1.075-.453a22.5,22.5,0,0,1,4.9,2.866l-.911-.7a22.184,22.184,0,0,1,3.848,3.862l-.7-.911c1.512,1.993,2.829,4.373,5.533,4.883a4.828,4.828,0,0,0,3.467-.454,4.581,4.581,0,0,0,2.068-2.689c.5-2.215-.669-5.069-3.143-5.535Z" transform="translate(-203.85 -126.971)"/><path class="cls-7" d="M401.788,209.663a38.566,38.566,0,0,0-13.693-6.09c-5.206-1.168-11.1-1.747-15.954.913a4.544,4.544,0,0,0-1.615,6.157,4.594,4.594,0,0,0,6.157,1.614q.354-.206.728-.375-.669.3.07.031c.183-.034,1.832-.338.815-.229a18.731,18.731,0,0,1,2.9-.058c.565.028,1.127.09,1.691.131.988.072-.568-.119.5.057s2.106.375,3.146.635,2.064.567,3.074.921c.4.142.8.3,1.2.447q.739.3.112.037.393.171.781.351a35.627,35.627,0,0,1,5.539,3.229,4.522,4.522,0,0,0,6.157-1.614,4.62,4.62,0,0,0-1.615-6.157Z" transform="translate(-203.85 -126.971)"/><path class="cls-7" d="M374.423,199.555a69.476,69.476,0,0,0-23.98,4.674c-2.185.855-3.945,3.056-3.143,5.536.687,2.123,3.188,4.061,5.536,3.143a65.693,65.693,0,0,1,10.98-3.243q1.353-.273,2.716-.488c.184-.029,1.647-.229.695-.109q.633-.08,1.265-.149c1.971-.213,3.95-.327,5.931-.364a4.5,4.5,0,0,0,0-9Z" transform="translate(-203.85 -126.971)"/><path class="cls-7" d="M404.693,217.059a1.643,1.643,0,0,1,.023-.271l-.107.8a2.91,2.91,0,0,1,.111-.388l-.3.717a9.568,9.568,0,0,1,.7-1.208,6.72,6.72,0,0,0,.816-1.953,11.607,11.607,0,0,0,.23-4.044,7.858,7.858,0,0,0-1.888-4,4.807,4.807,0,0,0-4.312-1.585,3.3,3.3,0,0,0-2.121.879,3,3,0,0,0,0,4.242,2.869,2.869,0,0,0,2.121.879,4.246,4.246,0,0,1,.962-.042l-.8-.108a2.369,2.369,0,0,1,.432.114l-.717-.3a2.291,2.291,0,0,1,.434.265l-.608-.469a3.43,3.43,0,0,1,.445.473l-.469-.607a6.974,6.974,0,0,1,.724,1.257l-.3-.717a3.844,3.844,0,0,1,.257.918l-.107-.8a11.1,11.1,0,0,1-.071,2.238l.107-.8a5.245,5.245,0,0,1-.346,1.34l.3-.716c-.214.453-.514.85-.762,1.283a5.6,5.6,0,0,0-.756,2.6,3.021,3.021,0,0,0,3,3,3.064,3.064,0,0,0,3-3Z" transform="translate(-203.85 -126.971)"/><path class="cls-7" d="M400.188,202.841a34.923,34.923,0,0,0-3.7-.71,22.285,22.285,0,0,1-3.609-1.152,3,3,0,0,0-2.312.3,3,3,0,0,0-1.076,4.1l.469.607a3,3,0,0,0,1.324.771,22.388,22.388,0,0,0,3.609,1.153,35.224,35.224,0,0,1,3.7.709,3,3,0,0,0,3.388-4.407,3.31,3.31,0,0,0-1.793-1.378Z" transform="translate(-203.85 -126.971)"/><path class="cls-7" d="M391.062,199.679a16.423,16.423,0,0,1-1.775-.041c-.253-.02-.506-.045-.758-.073-.169-.019-.337-.039-.506-.061q.565.077.041,0c-1.272-.194-2.546-.378-3.824-.526A25.656,25.656,0,0,0,377,198.9a3.012,3.012,0,0,0-2.095,3.691,3.088,3.088,0,0,0,3.69,2.095q.52-.083-.063,0c.122-.013.245-.023.368-.031.288-.021.575-.031.863-.033.5,0,.992.019,1.486.054,1.082.076,2.163.2,3.241.333.093.011.949.106.211.022.253.029.5.073.756.11.77.114,1.539.227,2.311.328a20.588,20.588,0,0,0,3.291.208,3,3,0,0,0,0-6Z" transform="translate(-203.85 -126.971)"/><path class="cls-7" d="M367.259,199.059c-.307.073-.615.132-.926.19-.775.144.648-.045-.139.016-.552.042-1.1.084-1.655.105-1.109.04-2.221.038-3.328.123a30.51,30.51,0,0,0-3.873.568,11.678,11.678,0,0,0-3.549,1.071,3,3,0,1,0,3.028,5.18q.429-.239-.157.055.2-.057.4-.1c.234-.056.468-.108.7-.161.546-.125,1.093-.246,1.642-.352.236-.046.472-.09.708-.13.308-.052.669-.129.151-.033a12.63,12.63,0,0,1,1.661-.14,37.532,37.532,0,0,0,6.932-.6,3.029,3.029,0,0,0,2.095-3.691,3.064,3.064,0,0,0-3.691-2.095Z" transform="translate(-203.85 -126.971)"/><path class="cls-7" d="M351.605,200.981c-.209.106-.421.205-.636.3l.717-.3a30.758,30.758,0,0,1-3.74,1,24.647,24.647,0,0,0-4.107,1.712,3.034,3.034,0,0,0-1.379,1.793,3.066,3.066,0,0,0,.3,2.312,3.028,3.028,0,0,0,1.793,1.378,3.336,3.336,0,0,0,2.311-.3c.594-.29,1.189-.578,1.8-.839l-.716.3a15.648,15.648,0,0,1,3.09-.9,14.021,14.021,0,0,0,3.6-1.272,3,3,0,0,0,1.076-4.105,3.072,3.072,0,0,0-4.1-1.076Z" transform="translate(-203.85 -126.971)"/><path class="cls-7" d="M343.937,203.159c-1.712.665-3.535.927-5.292,1.441a14.728,14.728,0,0,0-3.071,1.253c-.38.214-.737.465-1.112.688-.179.106-.4.184-.566.3q.715-.285.273-.136a2.488,2.488,0,0,1-.308.068l.8-.107-.158.02a3.28,3.28,0,0,0-2.121.878,3,3,0,0,0,0,4.243,2.887,2.887,0,0,0,2.121.879,7.251,7.251,0,0,0,2.424-.664,10.738,10.738,0,0,0,1.187-.692c.38-.241.773-.438,1.173-.642.333-.17-.6.229-.249.1.106-.037.211-.081.317-.12.239-.087.481-.166.725-.24,1.806-.548,3.69-.8,5.455-1.489a3.262,3.262,0,0,0,1.793-1.379,3.064,3.064,0,0,0,.3-2.311c-.459-1.418-2.124-2.7-3.69-2.1Z" transform="translate(-203.85 -126.971)"/><path class="cls-7" d="M336.755,204.485a33.227,33.227,0,0,1-4.636,1.6,9.262,9.262,0,0,0-2.6,1.075,20.554,20.554,0,0,1-1.931,1.15,3.018,3.018,0,0,0-1.379,1.793,3.066,3.066,0,0,0,.3,2.312,3.028,3.028,0,0,0,1.793,1.378,3.4,3.4,0,0,0,2.311-.3c.979-.456,1.809-1.169,2.8-1.607l-.716.3c.91-.373,1.909-.522,2.843-.836.952-.32,1.882-.7,2.811-1.078a3.29,3.29,0,0,0,1.793-1.379,3.065,3.065,0,0,0,.3-2.311,3.033,3.033,0,0,0-1.379-1.793,2.9,2.9,0,0,0-2.312-.3Z" transform="translate(-203.85 -126.971)"/><path class="cls-7" d="M328.181,207.055a24.6,24.6,0,0,0-4.36,1.7c-1.153.6-2.256,1.289-3.424,1.859a3.031,3.031,0,0,0-1.379,1.793,3.066,3.066,0,0,0,.3,2.312,3.026,3.026,0,0,0,1.792,1.378,3.343,3.343,0,0,0,2.312-.3c1.569-.766,3.025-1.746,4.633-2.432l-.716.3a24.78,24.78,0,0,1,2.434-.823,3.128,3.128,0,0,0,1.793-1.378,3,3,0,0,0-3.388-4.407Z" transform="translate(-203.85 -126.971)"/><path class="cls-7" d="M318.5,211.176c-1.865.852-3.718,1.739-5.6,2.549l.717-.3a10.2,10.2,0,0,1-1.45.5,3,3,0,0,0,1.6,5.786,25.393,25.393,0,0,0,4.119-1.689l3.648-1.666a3.015,3.015,0,0,0,1.379-1.793,3.067,3.067,0,0,0-.3-2.311,3.026,3.026,0,0,0-1.793-1.379l-.8-.107a2.978,2.978,0,0,0-1.514.409Z" transform="translate(-203.85 -126.971)"/><path class="cls-7" d="M320.66,215.268a63.071,63.071,0,0,1-7.767,2.3,3.023,3.023,0,0,0-2.095,3.69,3.067,3.067,0,0,0,3.69,2.1,63.245,63.245,0,0,0,7.767-2.3,3.229,3.229,0,0,0,1.793-1.379,3.067,3.067,0,0,0,.3-2.312,3.034,3.034,0,0,0-1.379-1.792,2.954,2.954,0,0,0-2.311-.3Z" transform="translate(-203.85 -126.971)"/><path class="cls-7" d="M310.084,215.652a17.046,17.046,0,0,0-4.569,1.751,14.577,14.577,0,0,0-1.752,1.147,15.377,15.377,0,0,0-2.173,1.886,3.163,3.163,0,0,0-.879,2.122,3.054,3.054,0,0,0,.879,2.121,3,3,0,0,0,4.243,0,11.762,11.762,0,0,1,1.566-1.417l-.607.469a14.563,14.563,0,0,1,3.1-1.8l-.717.3a14.526,14.526,0,0,1,2.508-.793,3,3,0,1,0-1.595-5.786Z" transform="translate(-203.85 -126.971)"/><path class="cls-7" d="M300.8,220.585a7.444,7.444,0,0,0-1.879,1.577c-.407.464-.791.943-1.238,1.37-.229.219-.465.43-.69.652a10.628,10.628,0,0,0-1.053,1.256,5.566,5.566,0,0,0-1.026,3.056,3,3,0,0,0,5.122,2.122,3.25,3.25,0,0,0,.878-2.122c0-.057.006-.115.013-.172l-.107.8a2.648,2.648,0,0,1,.181-.66l-.3.716a3.805,3.805,0,0,1,.449-.744l-.469.607c.52-.659,1.2-1.166,1.758-1.789a13.3,13.3,0,0,1,1.576-1.676l-.607.469a3.961,3.961,0,0,1,.423-.279,3,3,0,0,0,1.076-4.1,3.026,3.026,0,0,0-1.793-1.379,3.156,3.156,0,0,0-2.311.3Z" transform="translate(-203.85 -126.971)"/><path class="cls-7" d="M309.6,220.428c-1.722,1.3-3.612,2.359-5.328,3.67a37.075,37.075,0,0,0-5.124,4.929,3,3,0,0,0,4.243,4.242c.706-.792,1.413-1.584,2.157-2.342.361-.367.73-.726,1.111-1.072.2-.183.407-.363.616-.538.182-.152.905-.641.169-.147.845-.567,1.664-1.172,2.518-1.729.9-.59,1.805-1.182,2.667-1.833a3.285,3.285,0,0,0,1.378-1.792,3.064,3.064,0,0,0-.3-2.312,3.026,3.026,0,0,0-1.793-1.379,2.906,2.906,0,0,0-2.312.3Z" transform="translate(-203.85 -126.971)"/><path class="cls-7" d="M300.041,231.671a11.9,11.9,0,0,0,.022,4.514,3.358,3.358,0,0,0,1.379,1.793,2.233,2.233,0,0,0,1.116.356,2.275,2.275,0,0,0,1.2-.054l.716-.3a3.018,3.018,0,0,0,1.077-1.076l.3-.717a3.019,3.019,0,0,0,0-1.595l-.033-.223.108.8a9.978,9.978,0,0,1,0-2.584l-.107.8.015-.112a2.274,2.274,0,0,0,.054-1.2,2.232,2.232,0,0,0-.356-1.115,3.358,3.358,0,0,0-1.793-1.379l-.8-.107a2.985,2.985,0,0,0-1.514.41l-.607.469a3,3,0,0,0-.772,1.323Z" transform="translate(-203.85 -126.971)"/><path class="cls-7" d="M294.019,228.056a4.593,4.593,0,0,0-1.14,2.057,14.209,14.209,0,0,0-.246,1.783,8.44,8.44,0,0,0,.173,3.037,5.045,5.045,0,0,0,1.121,2.1,5.214,5.214,0,0,0,2.085,1.3,11.17,11.17,0,0,0,2.943.565,3,3,0,0,0,2.121-.879,3,3,0,0,0,0-4.243l-.607-.469a2.984,2.984,0,0,0-1.514-.409c-.2-.023-.4-.046-.6-.072l.8.107a6.243,6.243,0,0,1-1.547-.386l.717.3a3,3,0,0,1-.494-.272l.608.469a1.893,1.893,0,0,1-.269-.253l.469.607a1.939,1.939,0,0,1-.228-.4l.3.717a3.888,3.888,0,0,1-.216-.87l.107.8a9.71,9.71,0,0,1,.1-2.328l-.107.8a3.309,3.309,0,0,1,.161-.695l-.3.717a1.816,1.816,0,0,1,.164-.3l-.469.607a1.031,1.031,0,0,1,.113-.133,3.145,3.145,0,0,0,.879-2.122,3.054,3.054,0,0,0-.879-2.121,3,3,0,0,0-4.242,0Z" transform="translate(-203.85 -126.971)"/><path class="cls-7" d="M294.068,234.688a3.658,3.658,0,0,0-.449,1.685,3.5,3.5,0,0,0,.456,1.658,4.95,4.95,0,0,0,.974,1.152q.318.291.658.558a8.058,8.058,0,0,0,1.23.882,6.988,6.988,0,0,0,2.241.677,9.829,9.829,0,0,1,1.825.334l-.717-.3a1.489,1.489,0,0,1,.218.12l-.607-.469a1.159,1.159,0,0,1,.164.157l-.469-.607a.667.667,0,0,1,.078.127l-.3-.716a.544.544,0,0,1,.044.142l-.107-.8.007.093.107-.8-.014.091.3-.716-.038.083.469-.607a.392.392,0,0,1-.1.1l.607-.469a3.035,3.035,0,0,1-.475.251l.717-.3a3.444,3.444,0,0,1-.717.195l.8-.107a3.347,3.347,0,0,1-.742.011,3,3,0,0,0-2.122.879,3,3,0,0,0,0,4.242l.607.469a2.985,2.985,0,0,0,1.515.41,5.937,5.937,0,0,0,3.143-.693,3.5,3.5,0,0,0,1.825-2.151,3.593,3.593,0,0,0-.887-3.371,4.034,4.034,0,0,0-1.89-1.109,9.125,9.125,0,0,0-.96-.166,9.413,9.413,0,0,1-2.037-.4l.716.3a3.938,3.938,0,0,1-.79-.492l.607.469a6.818,6.818,0,0,1-1.1-1l.469.607a.7.7,0,0,1-.082-.139l.3.716-.024-.072.107.8-.008-.072-.107.8.011-.07-.3.717.033-.066a3.19,3.19,0,0,0,.3-2.311,3,3,0,0,0-3.69-2.1,2.991,2.991,0,0,0-1.793,1.379Z" transform="translate(-203.85 -126.971)"/><path class="cls-7" d="M335.2,233.094c-2.318.044-4.073,1.254-5.814,2.645a31.726,31.726,0,0,0-3.935,3.534,26.316,26.316,0,0,0-5.23,9.6,3.024,3.024,0,0,0,2.095,3.69,3.067,3.067,0,0,0,3.69-2.095c.223-.69.463-1.373.732-2.046.13-.328.122-.388,0-.023a4.689,4.689,0,0,1,.233-.522c.144-.312.293-.621.45-.925a21,21,0,0,1,1.146-1.97c.188-.285.392-.558.586-.839.206-.3-.348.407.019-.023.123-.145.242-.293.366-.436a26.9,26.9,0,0,1,3.412-3.164c.281-.227.564-.454.846-.68.566-.452-.34.225.015-.006.156-.1.3-.218.461-.319s.314-.2.476-.285q.1-.054.195-.1.3-.147-.218.085a3.467,3.467,0,0,0,.411-.127c.646-.2-.626.018.059,0a3,3,0,0,0,0-6Z" transform="translate(-203.85 -126.971)"/><path class="cls-7" d="M320.876,249.739a15.3,15.3,0,0,0-2.858,4.318,2.232,2.232,0,0,0-.356,1.115,3.077,3.077,0,0,0,1.432,2.989,3.032,3.032,0,0,0,2.312.3l.717-.3a3.015,3.015,0,0,0,1.076-1.076,13.045,13.045,0,0,1,1.683-2.877l-.469.607q.336-.43.706-.833A3.146,3.146,0,0,0,326,251.86a3.348,3.348,0,0,0-.879-2.121,3,3,0,0,0-4.243,0Z" transform="translate(-203.85 -126.971)"/><path class="cls-7" d="M318.237,254.394l-.039.287a2.264,2.264,0,0,0-.053,1.2,2.222,2.222,0,0,0,.356,1.115,3.348,3.348,0,0,0,1.793,1.379l.8.107a2.982,2.982,0,0,0,1.514-.41l.607-.469a3,3,0,0,0,.772-1.323l.039-.287a2.274,2.274,0,0,0,.054-1.2,2.232,2.232,0,0,0-.356-1.115,3.358,3.358,0,0,0-1.793-1.379l-.8-.107a2.994,2.994,0,0,0-1.514.409l-.607.47a3,3,0,0,0-.772,1.323Z" transform="translate(-203.85 -126.971)"/><path class="cls-7" d="M318.427,254.531a5.248,5.248,0,0,0-.869,1.211,9.432,9.432,0,0,0-.542,1.359,15.908,15.908,0,0,1-.461,1.577l.3-.717c-.021.05-.043.1-.066.147a2.232,2.232,0,0,0-.356,1.115,3.086,3.086,0,0,0,1.432,2.99l.717.3a3.019,3.019,0,0,0,1.6,0l.717-.3a3.018,3.018,0,0,0,1.076-1.077,10.115,10.115,0,0,0,.669-1.835,7.81,7.81,0,0,1,.339-1.113l-.3.716a2.9,2.9,0,0,1,.334-.589l-.469.607c.04-.051.082-.1.125-.148a3.084,3.084,0,0,0,0-4.243,3.019,3.019,0,0,0-2.121-.879l-.8.108a2.984,2.984,0,0,0-1.324.771Z" transform="translate(-203.85 -126.971)"/><path class="cls-7" d="M336.846,235.851a12.38,12.38,0,0,0,8.485-3.515,12.194,12.194,0,0,0,3.515-8.485c-.291-6.5-5.273-12-12-12a12.384,12.384,0,0,0-8.486,3.515,12.193,12.193,0,0,0-3.514,8.485c.291,6.5,5.272,12,12,12Z" transform="translate(-203.85 -126.971)"/></g><g id="Lengua"><path class="cls-8" d="M370.483,280.493a14.486,14.486,0,0,0-1.757.655l-.3.235-.235.3-.151.358a1.131,1.131,0,0,0-.027.6.76.76,0,0,0,.1.378.75.75,0,0,0,.193.331.762.762,0,0,0,.269.269,1.132,1.132,0,0,0,.511.269,7.327,7.327,0,0,0,1.678.125,1.137,1.137,0,0,0,.578-.13,1.114,1.114,0,0,0,.483-.31,1.664,1.664,0,0,0,.439-1.06l-.053-.4a1.505,1.505,0,0,0-.386-.662l-.3-.235a1.5,1.5,0,0,0-.757-.2,5.65,5.65,0,0,1-1.064-.038l.4.053q-.108-.015-.216-.033l.358,2.741.122-.052-.358.151a11.5,11.5,0,0,1,1.276-.451,1.122,1.122,0,0,0,.51-.268,1.144,1.144,0,0,0,.387-.421,1.121,1.121,0,0,0,.178-.558,1.148,1.148,0,0,0-.027-.6l-.151-.358a1.518,1.518,0,0,0-.538-.539l-.359-.151a1.518,1.518,0,0,0-.8,0Z" transform="translate(-203.85 -126.971)"/></g><g id="Cuerpo2"><path class="cls-7" d="M333.9,322.918c7.1-4.161,15.64-3.135,23.506-3.8a76.631,76.631,0,0,0,23.233-5.7,1.527,1.527,0,0,0,1.075-1.646,1.479,1.479,0,0,0-1.473-1.3c-4.5.459-9.2.585-13.609,1.652-2.025.49-3.955,1.29-5.939,1.914a72.192,72.192,0,0,1-7.08,1.716c-1.77.366-1.174,2.795.4,2.946a17.055,17.055,0,0,0,6.622-.671c1.843-.558,1.058-3.454-.8-2.892a14.826,14.826,0,0,1-5.825.563l.4,2.947c2.219-.46,4.444-.919,6.616-1.573,2-.6,3.944-1.415,5.97-1.948,4.261-1.12,8.874-1.208,13.244-1.654l-.4-2.947a74.168,74.168,0,0,1-23.808,5.693c-8.013.526-16.449-.116-23.648,4.1a1.5,1.5,0,0,0,1.514,2.59Z" transform="translate(-203.85 -126.971)"/><path class="cls-7" d="M378.873,312.268c-2.13,3.488-5.021,6.486-7.678,9.572l-4.124,4.79c-.978,1.136-2.592,2.814-.959,4.192,1.65,1.391,3.168-.129,4.172-1.416l3.862-4.951c1.6-2.057,6.043-6.687,1.988-8.782-1.706-.881-3.522.452-4.585,1.724a17.08,17.08,0,0,0-2.6,4.988l2.893.8a23.562,23.562,0,0,0,.907-5.191,1.514,1.514,0,0,0-2.561-1.061,23.509,23.509,0,0,0-4.917,8.954c-.4,1.366,1.526,2.649,2.507,1.46a13.377,13.377,0,0,0,3.135-9.7,1.519,1.519,0,0,0-2.56-1.061,4.5,4.5,0,0,0-1.381,3.283,1.518,1.518,0,0,0,2.257,1.3c1.236-.592,2.445-1.852,1.9-3.334-.615-1.663-2.376-1.594-3.846-1.5-3.92.243-7.86.388-11.77.763-3.614.346-7.015,1.608-10.606,2.041-3.533.426-7.145.481-10.492,1.821a1.522,1.522,0,0,0-.662,2.507,7.975,7.975,0,0,0-.414,1.282,3.266,3.266,0,0,0,.013,1.207,3.811,3.811,0,0,0,1.325,1.96,6.9,6.9,0,0,1,2.265,4.179c.37,1.767.408,3.706,1.315,5.311.93,1.645,2.677,2.622,3.8,4.126a12.746,12.746,0,0,1,1.435,2.45,11.429,11.429,0,0,1,.435,1.157c.083.258.158.519.225.781q.207-.892-.156-.322a2.041,2.041,0,0,0-.142,2.447,2.639,2.639,0,0,0,2.215,1.107A18.711,18.711,0,0,0,352.141,348c1.569-.524,3.628-1.594,5.211-.638l.757-2.795-1.025-.129.4,2.947a38.27,38.27,0,0,1,5.331-.377,13.753,13.753,0,0,0,2.553-.386c.865-.233,1.655-.768,2.531-.933a7.682,7.682,0,0,1,2.715.3,16.745,16.745,0,0,0,2.623.268c1.513.023,3.521-.011,4.685-1.131,2.629-2.532-1.011-6.087-2.134-8.381a20.5,20.5,0,0,1-1.571-4.576,19,19,0,0,1-.387-2.5q-.052-.627-.068-1.255c-.007-.209-.009-.419-.008-.628q.031-.732-.016-.213l-.9.69q-1.2-1.155-1.081-.272c0,.234.011.467.021.7q.03.7.088,1.4c.069.833.172,1.663.293,2.489a35.6,35.6,0,0,0,1.191,5.24c.561,1.842,3.457,1.056,2.893-.8a33.275,33.275,0,0,1-1.413-7.4c-.1-1.5.084-4.4-2.189-4.388-2.469.017-1.926,3.5-1.753,5.057a23.477,23.477,0,0,0,1.557,6.266,24.3,24.3,0,0,0,1.335,2.809c.538.957,1.324,1.817,1.8,2.8.271.555.4.692-.139.927a5.164,5.164,0,0,1-1.761.161,16.611,16.611,0,0,1-3.371-.375,7.58,7.58,0,0,0-3.211-.084c-1.166.285-2.178.922-3.382,1.116-2.334.377-4.7.075-7.033.58-1.8.389-1.143,2.753.4,2.946l1.025.129c1.556.195,1.926-2.089.757-2.8-1.951-1.179-4.132-.808-6.191-.125-1.1.363-2.17.76-3.3,1.025-.6.141-1.2.258-1.811.339-.309.041-.618.074-.929.1q-.2.02-.4.024-.38-.014.065.076l.151,1.156q-.291.231-.048.026a.867.867,0,0,0,.228-.247,2.655,2.655,0,0,0,.429-.739,3.079,3.079,0,0,0-.129-1.688,15.013,15.013,0,0,0-1.615-3.7,15.41,15.41,0,0,0-2.516-3.148c-1.154-1.1-2.072-1.787-2.42-3.434-.5-2.375-.61-4.92-2.034-6.989a7.283,7.283,0,0,0-1.17-1.339c-.468-.414-.876-.562-.816-1.182a9.865,9.865,0,0,0,.307-1.879,2.662,2.662,0,0,0-.8-1.715l-.662,2.507a29.064,29.064,0,0,1,8.161-1.552,62.824,62.824,0,0,0,8.5-1.605,51.727,51.727,0,0,1,8.791-.951l4.654-.288c.817-.051,1.633-.105,2.45-.152.145-.008.7.05.816-.04q.133-1.362-.424-.918a2.214,2.214,0,0,1-.447.235l2.257,1.295a1.424,1.424,0,0,1,.5-1.162l-2.561-1.06a10.385,10.385,0,0,1-2.256,7.579l2.507,1.459a20.014,20.014,0,0,1,4.146-7.631l-2.561-1.06a19.839,19.839,0,0,1-.8,4.394c-.559,1.886,2.214,2.564,2.893.8a13.652,13.652,0,0,1,1.83-3.664,5.081,5.081,0,0,1,.769-.8,1.34,1.34,0,0,1,.412-.271q.332-.1-.11-.154a3.365,3.365,0,0,1-.638,1.372c-1.044,1.426-2.179,2.794-3.266,4.188l-1.783,2.285a11.627,11.627,0,0,0-1.612,2.057q-.735.735,1.116,1.29l.317-.369a10.084,10.084,0,0,0,.952-1.105l1.745-2.027,3.49-4.053a63.911,63.911,0,0,0,6.4-8.153c1.009-1.652-1.585-3.161-2.591-1.514Z" transform="translate(-203.85 -126.971)"/><path class="cls-7" d="M364.847,316.241c-4.2-.26-8.379.8-12.524,1.36l2.392-.322a21.891,21.891,0,0,1-5.532.106l2.393.321a44.381,44.381,0,0,0-5.983-.95,9.08,9.08,0,0,0-8.678,11.392,2.193,2.193,0,0,1,.127.565l6.286-11.071-.213.06H347.9l-.211-.08,5.379,4.137-.12-.186a9.476,9.476,0,0,0-5.378-4.136,9.2,9.2,0,0,0-6.935.907,9,9,0,0,0-3.229,12.314A9.485,9.485,0,0,0,348.113,335a9.2,9.2,0,0,0,5.378-4.136l.908-2.15a9.076,9.076,0,0,0,0-4.785,2.193,2.193,0,0,0-.127-.565l-8.679,11.393a4.463,4.463,0,0,1,.74.043l-2.393-.321c3.083.51,6.061,1.229,9.212.97,3.086-.254,6.128-.864,9.192-1.29l-2.392.321a25.45,25.45,0,0,1,4.895-.238,9,9,0,0,0,6.364-15.364,9.857,9.857,0,0,0-6.364-2.636Z" transform="translate(-203.85 -126.971)"/><path class="cls-7" d="M338.958,329.3a13.356,13.356,0,0,0,.368,2.659.977.977,0,0,0,.036.108l.908,2.15c.021.046.04.093.064.138a10.7,10.7,0,0,0,1.816,2.356,15.5,15.5,0,0,1,1.118,1.174l-1.408-1.822a5.592,5.592,0,0,1,.62.995l-.907-2.15a1.78,1.78,0,0,1,.111.364l-.322-2.393a1.1,1.1,0,0,1,.006.215l.322-2.393a.549.549,0,0,1-.032.133l.908-2.149a.532.532,0,0,1-.066.119l1.407-1.821a.5.5,0,0,1-.1.1l1.821-1.407a2.071,2.071,0,0,1-.255.135,9.974,9.974,0,0,0-2.009,1.51,9.43,9.43,0,0,0-1.548,1.983,6.779,6.779,0,0,0-1.105,3.482,7.065,7.065,0,0,0,.173,3.73,9.571,9.571,0,0,0,1,2.361,8.166,8.166,0,0,0,1.809,2.246,9.255,9.255,0,0,0,12.728,0l1.408-1.821a8.96,8.96,0,0,0,1.228-4.543l-.321-2.392a8.991,8.991,0,0,0-2.315-3.972,2.246,2.246,0,0,1-.3-.289l1.407,1.822a1.254,1.254,0,0,1-.167-.276l.907,2.15a.535.535,0,0,1-.034-.142l.322,2.393v-.07l-.321,2.392a.383.383,0,0,1,.037-.136l-.907,2.15.039-.065-1.407,1.822a.459.459,0,0,1,.1-.1l-1.821,1.407a2.453,2.453,0,0,1,.254-.133,10.882,10.882,0,0,0,2.011-1.512,9.382,9.382,0,0,0,2.513-4.323,9.782,9.782,0,0,0-.061-5.221,13.9,13.9,0,0,0-1.166-2.671,16.714,16.714,0,0,0-2.247-2.934c-.306-.323-.656-.6-.934-.951l1.407,1.821a2,2,0,0,1-.234-.4l.907,2.15a1.588,1.588,0,0,1-.076-.3l.322,2.392-.007-.078a9.249,9.249,0,0,0-9-9l-2.392.321a9,9,0,0,0-3.972,2.315l-1.407,1.821a8.961,8.961,0,0,0-1.229,4.543Z" transform="translate(-203.85 -126.971)"/><path class="cls-7" d="M350.3,345.7c4.708,0,9.218-4.139,9-9a9.158,9.158,0,0,0-9-9c-4.708,0-9.218,4.14-9,9a9.156,9.156,0,0,0,9,9Z" transform="translate(-203.85 -126.971)"/><path class="cls-7" d="M350.3,347.106h.128a9.252,9.252,0,0,0,9-9l-.322-2.392a8.991,8.991,0,0,0-2.315-3.972l-1.821-1.407a8.96,8.96,0,0,0-4.542-1.229H350.3a9.25,9.25,0,0,0-9,9l.321,2.393a8.988,8.988,0,0,0,2.315,3.971l1.821,1.408a8.96,8.96,0,0,0,4.543,1.228Z" transform="translate(-203.85 -126.971)"/><path class="cls-7" d="M357.7,346.34c4.708,0,9.218-4.139,9-9a9.156,9.156,0,0,0-9-9c-4.708,0-9.218,4.14-9,9a9.157,9.157,0,0,0,9,9Z" transform="translate(-203.85 -126.971)"/><path class="cls-7" d="M362.043,345.574c4.707,0,9.217-4.139,9-9a9.158,9.158,0,0,0-9-9c-4.708,0-9.218,4.14-9,9a9.156,9.156,0,0,0,9,9Z" transform="translate(-203.85 -126.971)"/><path class="cls-7" d="M366.766,346.34c4.708,0,9.218-4.139,9-9a9.156,9.156,0,0,0-9-9c-4.708,0-9.218,4.14-9,9a9.156,9.156,0,0,0,9,9Z" transform="translate(-203.85 -126.971)"/></g><g id="Cuerpo"><path class="cls-5" d="M306.264,296.061a4.206,4.206,0,0,0-3.249,1.744,6.889,6.889,0,0,0-.908,3.786,17.579,17.579,0,0,0,1.325,7.493,1.549,1.549,0,0,0,1.845,1.048,1.509,1.509,0,0,0,1.047-1.845,15.456,15.456,0,0,1-1.231-5.7,9.989,9.989,0,0,1,.224-2.717.923.923,0,0,1,.432-.641c-.227.17.428-.19.148-.079a2.454,2.454,0,0,1,.3-.086c-.143.01-.12.009.066,0a1.532,1.532,0,0,0,1.5-1.5,1.515,1.515,0,0,0-1.5-1.5Z" transform="translate(-203.85 -126.971)"/><path class="cls-5" d="M304.982,299.7a103.864,103.864,0,0,1,4.726,14.134c.48,1.869,3.374,1.077,2.893-.8a104.14,104.14,0,0,0-4.726-14.134,1.549,1.549,0,0,0-1.845-1.048,1.51,1.51,0,0,0-1.048,1.845Z" transform="translate(-203.85 -126.971)"/><path class="cls-5" d="M307.277,298.9a37.334,37.334,0,0,0,.694,15.571,1.5,1.5,0,0,0,2.893-.8,33.679,33.679,0,0,1-.694-13.976,1.546,1.546,0,0,0-1.048-1.845,1.512,1.512,0,0,0-1.845,1.047Z" transform="translate(-203.85 -126.971)"/><path class="cls-5" d="M305.157,303.7a26.45,26.45,0,0,0,6.5,20.057c1.278,1.452,3.393-.677,2.121-2.122a23.526,23.526,0,0,1-5.624-17.935,1.51,1.51,0,0,0-1.5-1.5,1.534,1.534,0,0,0-1.5,1.5Z" transform="translate(-203.85 -126.971)"/><path class="cls-5" d="M325.573,318.59l-4.385-1.22a13.642,13.642,0,0,0-7.177-.322,13.4,13.4,0,0,0-6.693,2.136,20.139,20.139,0,0,0-8.272,10.758l-.643,4.785a17.921,17.921,0,0,0,2.458,9.085l2.814,3.643a17.982,17.982,0,0,0,7.943,4.629L316,353.3a13.632,13.632,0,0,0,7.177.322,13.407,13.407,0,0,0,6.693-2.136,20.139,20.139,0,0,0,8.272-10.758l.643-4.785a17.921,17.921,0,0,0-2.458-9.085l-2.814-3.643a17.992,17.992,0,0,0-7.943-4.629Z" transform="translate(-203.85 -126.971)"/><path class="cls-5" d="M302.232,302.581c2.6,6.435,5.266,13.034,4.586,20.02l4.515-2.591c.369.271-.235-.263-.019-.049.194.192-.242-.513-.045-.019a3.093,3.093,0,0,0-3.69-2.1c-1.429.392-2.7,2.177-2.1,3.69a7.792,7.792,0,0,0,2.82,3.654,2.952,2.952,0,0,0,3.029,0,3.126,3.126,0,0,0,1.485-2.59c.733-7.533-2.026-14.763-4.8-21.615a3.094,3.094,0,0,0-3.69-2.095c-1.423.391-2.707,2.179-2.095,3.69Z" transform="translate(-203.85 -126.971)"/><path class="cls-5" d="M301.132,301.435c-3.315,3.421-3.723,8.387-4.308,12.878-.615,4.714-.774,9.679,1.108,14.145a3.1,3.1,0,0,0,3.69,2.095c1.406-.386,2.729-2.187,2.1-3.69-1.584-3.759-1.471-7.714-1-11.7.361-3.063.572-7.336,2.658-9.489,2.689-2.774-1.549-7.022-4.242-4.243Z" transform="translate(-203.85 -126.971)"/><path class="cls-5" d="M301.814,309.052a56.092,56.092,0,0,0,1.269,19.55,3.029,3.029,0,0,0,3.691,2.1,3.062,3.062,0,0,0,2.1-3.69,50.85,50.85,0,0,1-1.055-17.955,3.007,3.007,0,0,0-3-3,3.086,3.086,0,0,0-3,3Z" transform="translate(-203.85 -126.971)"/><path class="cls-5" d="M299.336,315.184l-1.145,13.038a3.013,3.013,0,0,0,3,3,3.078,3.078,0,0,0,3-3l1.145-13.038a3.011,3.011,0,0,0-3-3,3.077,3.077,0,0,0-3,3Z" transform="translate(-203.85 -126.971)"/><path class="cls-5" d="M295.009,314.273c.08.466-.066-.049-.009-.134a2.549,2.549,0,0,0,.047.555c.021.334.028.669.027,1,0,.637-.036,1.272-.066,1.907a20.319,20.319,0,0,0,.186,4.247A8.279,8.279,0,0,0,299.358,328a3,3,0,1,0,3.028-5.18,4.776,4.776,0,0,0-.57-.322,1.97,1.97,0,1,0,.224.173c-.078-.074-.158-.145-.233-.221a2.066,2.066,0,0,0-.218-.238c.075.054.392.561.174.22-.119-.185-.237-.368-.34-.563a2.842,2.842,0,0,0-.147-.3,1.889,1.889,0,1,0,.109.251c-.073-.215-.148-.428-.208-.647s-.111-.442-.154-.665c-.021-.111-.029-.228-.057-.337.05.2.081.711.037.208a26.135,26.135,0,0,1,.037-3.45,19.73,19.73,0,0,0-.245-4.252,3.012,3.012,0,0,0-3.69-2.095,3.085,3.085,0,0,0-2.1,3.69Z" transform="translate(-203.85 -126.971)"/><path class="cls-5" d="M293.3,319c-1.351,5.606,1.03,10.806,3.586,15.662a3.024,3.024,0,0,0,4.105,1.076,3.067,3.067,0,0,0,1.076-4.1c-.528-1-1.057-2.008-1.542-3.033-.1-.22-.206-.44-.305-.662q-.1-.221-.195-.444.217.517.024.045c-.184-.493-.373-.982-.532-1.483s-.3-1.012-.411-1.528a5.165,5.165,0,0,1-.179-.958l.042.315c-.019-.161-.035-.323-.048-.484a12.124,12.124,0,0,1-.021-1.694c.008-.118.028-.939-.006-.164a5.253,5.253,0,0,1,.192-.949A3,3,0,0,0,293.3,319Z" transform="translate(-203.85 -126.971)"/><path class="cls-5" d="M294.179,328.625a81.816,81.816,0,0,0,3.515,10.391,3.3,3.3,0,0,0,1.379,1.792,3,3,0,0,0,4.105-1.076,2.9,2.9,0,0,0,.3-2.311,81.816,81.816,0,0,1-3.515-10.391,3,3,0,0,0-5.786,1.6Z" transform="translate(-203.85 -126.971)"/><path class="cls-5" d="M294.56,334.753q.1.363.239.714c.182.467.374.934.6,1.384a8.31,8.31,0,0,0,.8,1.3,2.893,2.893,0,0,0,2.99,1.432,2.232,2.232,0,0,0,1.115-.356l.607-.469a3,3,0,0,0,.772-1.324l.107-.8a2.985,2.985,0,0,0-.41-1.515,8.266,8.266,0,0,1-1.01-1.748l.3.717a8.5,8.5,0,0,1-.327-.932,3.358,3.358,0,0,0-1.379-1.793,2.232,2.232,0,0,0-1.115-.356,2.279,2.279,0,0,0-1.2.054l-.716.3a3.021,3.021,0,0,0-1.077,1.077l-.3.716a3.019,3.019,0,0,0,0,1.595Z" transform="translate(-203.85 -126.971)"/><path class="cls-5" d="M293.645,332.045a7.77,7.77,0,0,0,.938,3.383,8.843,8.843,0,0,0,.977,1.41,5.116,5.116,0,0,0,.732.761,2.249,2.249,0,0,0,.966.621,2.719,2.719,0,0,0,2.312,0,2.246,2.246,0,0,0,.965-.621,3.015,3.015,0,0,0,.879-2.121,2.95,2.95,0,0,0-.879-2.121,5.136,5.136,0,0,1-.749-.783l.469.607a5.306,5.306,0,0,1-.651-1.126l.3.717a5.143,5.143,0,0,1-.341-1.254l.107.8c-.012-.089-.021-.179-.028-.27a3.086,3.086,0,0,0-3-3,3.035,3.035,0,0,0-2.122.879,2.945,2.945,0,0,0-.878,2.121Z" transform="translate(-203.85 -126.971)"/><path class="cls-5" d="M296.786,340.634a10.557,10.557,0,0,0,1.872,2.6,20.907,20.907,0,0,0,2.57,2.021l-.607-.469a9.836,9.836,0,0,1,1.115,1.121,7.086,7.086,0,0,0,1.075.894,2,2,0,0,0,.3.172,4.9,4.9,0,0,0,1.011.4,3.161,3.161,0,0,0,2.312-.3,3,3,0,0,0-.717-5.484,1.807,1.807,0,0,1-.3-.094l.717.3a2.155,2.155,0,0,1-.39-.243l.607.469c-.432-.356-.747-.826-1.16-1.2-.648-.591-1.4-1.037-2.092-1.569l.607.469a8.187,8.187,0,0,1-1.4-1.41l.469.607a8.212,8.212,0,0,1-.811-1.305,3,3,0,0,0-5.483.716,3.31,3.31,0,0,0,.3,2.312Z" transform="translate(-203.85 -126.971)"/><path class="cls-5" d="M311.658,352.967a97.7,97.7,0,0,0,14.963,2.975,3,3,0,0,0,3-3,3.091,3.091,0,0,0-3-3c-.18-.021-.361-.044-.541-.067-.314-.041-.361-.047-.143-.017s.171.023-.142-.02l-.541-.076q-.81-.118-1.618-.25-1.752-.286-3.491-.642-3.477-.71-6.891-1.688a3,3,0,1,0-1.6,5.785Z" transform="translate(-203.85 -126.971)"/><path class="cls-5" d="M330.5,356.376c1.237-.356,2.47-.738,3.681-1.178a12.667,12.667,0,0,0,4.2-2.336,3,3,0,0,0-2.121-5.121,3.309,3.309,0,0,0-2.121.879c-.112.1-.226.192-.344.283l.607-.469a8.478,8.478,0,0,1-1.745.975l.716-.3a41.124,41.124,0,0,1-4.465,1.485,3.117,3.117,0,0,0-1.793,1.378,3,3,0,0,0,1.076,4.105,3.1,3.1,0,0,0,2.312.3Z" transform="translate(-203.85 -126.971)"/><path class="cls-5" d="M337.706,342.59a3.939,3.939,0,0,1,.57.173l-.717-.3a3.879,3.879,0,0,1,.4.2c.086.049.17.1.251.159l-.367-.289a2.975,2.975,0,0,1,.7.694c.208.226-.462-.645-.1-.119q.13.188.25.383a7.245,7.245,0,0,1,.491.951l-.3-.716a4.564,4.564,0,0,1,.225.793l-.108-.8a3.283,3.283,0,0,1,.011.761l.107-.8a2.86,2.86,0,0,1-.16.583l.3-.717a1.883,1.883,0,0,1-.142.266q.49-.6.191-.261a6.527,6.527,0,0,0-.737.954,6,6,0,0,0-.638,2.446l.107-.8a3.236,3.236,0,0,1-.14.591l.3-.716c-.038.09-.165.469-.268.5.144-.041.488-.627.094-.176-.169.147-.142.131.083-.049s.254-.192.071-.064c-.188.1-.367.212-.563.3l.717-.3a9.467,9.467,0,0,1-1.864.522,3.018,3.018,0,0,0-2.1,3.69,3.075,3.075,0,0,0,3.69,2.095,8.577,8.577,0,0,0,3.681-1.53,5.657,5.657,0,0,0,1.481-1.641,6.4,6.4,0,0,0,.725-2.586l-.107.8a3.341,3.341,0,0,1,.138-.627l-.3.717c.235-.487-.537.6-.034.007a6.619,6.619,0,0,0,.725-.974,5.346,5.346,0,0,0,.635-2.232,6.5,6.5,0,0,0-.892-3.6,7.722,7.722,0,0,0-4.819-4.078,3,3,0,1,0-1.595,5.785Z" transform="translate(-203.85 -126.971)"/><path class="cls-5" d="M338.46,349.9c.034-.055.07-.108.108-.16l-.469.607a8.854,8.854,0,0,0,1.137-1.448c.289-.579.461-1.192.71-1.785l-.3.717a7.382,7.382,0,0,1,.9-1.544l-.469.607q.147-.19.306-.373a3.087,3.087,0,0,0,0-4.243,3.02,3.02,0,0,0-2.121-.878,2.986,2.986,0,0,0-2.122.878,10.769,10.769,0,0,0-1.408,1.965,14.49,14.49,0,0,0-.622,1.4c-.113.28-.194.57-.311.847l.3-.716a2.014,2.014,0,0,1-.2.351l.469-.607a15.36,15.36,0,0,0-1.087,1.351,2.242,2.242,0,0,0-.356,1.115,3.084,3.084,0,0,0,1.433,2.989,3.03,3.03,0,0,0,2.311.3,3.2,3.2,0,0,0,1.793-1.379Z" transform="translate(-203.85 -126.971)"/><path class="cls-5" d="M336.925,348.105l-.035,0,.8-.107a1.125,1.125,0,0,1-.278,0l.8.107a1.139,1.139,0,0,1-.28-.076l.717.3c-.037-.016-.073-.034-.108-.053a2.226,2.226,0,0,0-1.116-.356,3.081,3.081,0,0,0-2.989,1.432l-.3.716a3.019,3.019,0,0,0,0,1.595l.3.717a3.015,3.015,0,0,0,1.076,1.076c.029.016.057.031.087.044.261.119.524.237.8.335a1.025,1.025,0,0,0,.181.047c.29.051.583.089.875.118.033,0,.065.005.1.005a.786.786,0,0,0,.1,0c.3-.024.589-.071.882-.118a3.1,3.1,0,0,0,2.095-3.69l-.3-.717a3.015,3.015,0,0,0-1.076-1.076l-.716-.3a3.022,3.022,0,0,0-1.6,0Z" transform="translate(-203.85 -126.971)"/></g></g><g id="Gato"><path d="M368.863,198.259c-.784.071-3.422.321-5.881.534-20.458,1.747-44.2,9.338-58.2,18.6-5.061,3.35-11.975,9.944-14.648,13.971-1.64,2.5-3.065,6.166-3.065,7.984,0,3.457,2.316,6.807,6.379,9.231l2.317,1.39,3.992,18.141c2.21,9.98,4.384,19.817,4.811,21.884l.785,3.742-2.175,2.887c-6.985,9.267-10.514,18.89-10.478,28.655.036,12.047,5.56,21.563,15.825,27.052a39.619,39.619,0,0,0,17.571,4.526c7.128.357,11.8-1.1,15.575-4.847l2.031-2.031,3.137-.214a22.046,22.046,0,0,0,4.74-.784c1.212-.464,2.637-.57,5.774-.535,4.206.071,7.378-.5,8.91-1.6.535-.356,1.034-.356,2.709.036,4.063.962,7.627.463,9.409-1.283,1.426-1.461,1.39-3.457-.214-6.487a22.844,22.844,0,0,1-2.281-11.69c.178-3.422.214-3.529,1.782-5.916a53.045,53.045,0,0,0,4.919-9.517,2.86,2.86,0,0,1,1.176-1.675c.428-.178,5.988-1.461,12.332-2.851,12.51-2.744,14.007-3.279,16.68-5.916,2.1-2.139,4.776-7.7,4.99-10.479.106-1.6-1.212-8.09-7.343-35.784l-7.484-33.823,1-1.283a25.775,25.775,0,0,0,2.031-3.243,10.5,10.5,0,0,0,.25-8.768c-2.353-4.42-9.124-7.77-18.712-9.231A145.25,145.25,0,0,0,368.863,198.259Zm18.284,2.138c16.644,2.459,22.774,9.98,15.468,18.961l-1.247,1.568.606,2.887c.534,2.531,8.839,40.239,13.115,59.45,1.64,7.52,1.64,8.874-.071,11.405-1.853,2.744-2.673,3.1-13.65,5.524C341.74,313.379,326.2,316.73,324.561,316.73a7.929,7.929,0,0,1-7.2-4.812c-.357-.784-3.992-16.609-8.055-35.178l-7.414-33.787-1.853-.891c-3.992-1.961-6.522-5.168-6.558-8.233-.036-9.374,17.928-21.385,42.484-28.442a167.581,167.581,0,0,1,30.687-5.56A123.8,123.8,0,0,1,387.147,200.4Zm-81.012,96.8c1.354,7.129,3.992,18.32,4.669,19.71a12.579,12.579,0,0,0,5.417,5.56,11.572,11.572,0,0,0,4.883.927c2.887.142,4.063-.036,11.94-1.854,4.811-1.069,15.967-3.564,24.77-5.524,8.839-1.96,17.714-3.956,19.781-4.455a20.139,20.139,0,0,1,3.885-.678c.321.321-4.348,9.018-6.1,11.334-2.922,3.885-7.769,8.519-8.34,7.948-.285-.285,1.07-5.524,2.067-8.019.891-2.138.927-2.922.143-2.922-.5,0-1.034,1-2.067,3.92a38.946,38.946,0,0,0-1.96,10.977c-.214,3.707-.143,4.064.5,4.812a7.546,7.546,0,0,1,1.889,3.778c0,1.069-1.6,2.744-3.279,3.422-1.426.57-9.2,1.247-9.2.819a10.766,10.766,0,0,1,.392-1.318c.57-1.569-.071-3.707-1.782-5.917l-1.319-1.746,1.177-1.961a21.866,21.866,0,0,0,1.746-3.778c1.354-4.6,1.39-11.262.036-11.512-.535-.106-.606.25-.606,3.636,0,6.522-1.176,9.872-4.883,13.793a12.655,12.655,0,0,0-2.245,2.78c0,.748,1.211.392,2.352-.713.641-.606,1.319-1,1.5-.891a9.191,9.191,0,0,1,1.461,1.889c2.744,4.1.285,6.879-6.166,6.879-2.174,0-2.388-.072-2.174-.642a12.669,12.669,0,0,0,.428-2.423,8.612,8.612,0,0,0-4.6-8.554c-1.818-1-2.067-1.034-6.522-1a29.268,29.268,0,0,0-8.554.962c-6.594,1.64-8.59,1.782-11.833.784-.677-.214-.82-.107-.82.464,0,2,5.311,2.174,12.475.392a29.845,29.845,0,0,1,8.946-1.212c3.991,0,4.17.035,5.88,1.069,5.418,3.35,4.42,11.334-1.889,15.041-4.989,2.922-12.225,3.243-21.206,1-9.481-2.424-16.039-7.592-19.923-15.683-2-4.17-2.531-6.486-2.709-11.939-.285-7.235,1.069-13.081,4.6-20.1,1.924-3.849,6.094-10.122,6.771-10.158C305.778,296.058,305.992,296.592,306.135,297.2Zm68.252,31.828a24.73,24.73,0,0,0,2.317,10.585c1.746,3.386,1.6,4.74-.606,5.667a14.13,14.13,0,0,1-6.451.214c-1.212-.25-1.283-.356-.927-1.034.642-1.211.179-3.778-1.069-5.488a5.132,5.132,0,0,1-1.105-3.85v-2.281l3.244-2.566a29.49,29.49,0,0,0,3.635-3.243C374.173,325.854,374.387,326.281,374.387,329.026Z" transform="translate(-203.85 -126.971)"/><path d="M354.179,229.944c-13.187,2.388-24.414,10.763-29.76,22.168a39.191,39.191,0,0,0-1.889,27.123c.57,1.854.712,2.638.427,2.745-1.318.392-1.39.463-.392.5.891.035,1.176.285,1.711,1.354a28.518,28.518,0,0,0,1.675,2.922,5.919,5.919,0,0,1,.962,1.64c-.071.036-.962.463-1.96.891a5.326,5.326,0,0,0-1.889,1.069c0,.178.963-.107,2.1-.606l2.138-.926,2.246,2.245c2.067,2.032,2.174,2.245,1.568,2.638-1.5.891-4.17,3.136-3.992,3.35.107.107.571-.143,1.034-.535a24.627,24.627,0,0,1,2.459-1.818l1.64-1.14,2.459,1.426a40.274,40.274,0,0,0,12.4,4.134c5.275.855,15.219.5,21.135-.713A67.454,67.454,0,0,0,391,289.286c6.273-4.206,10.728-10.086,11.619-15.4l.428-2.388,3.207-.142,3.244-.107-3.244-.072-3.279-.071-.285-2.424c-.178-1.318-.32-2.637-.32-2.922,0-.356.926-.749,3.207-1.283,1.782-.428,2.852-.784,2.388-.82a17.112,17.112,0,0,0-3.314.535,11.572,11.572,0,0,1-2.638.427c-.035-.035-.606-1.211-1.212-2.566-1.283-2.815-1.354-2.637,2.21-4.348a5.928,5.928,0,0,0,2.032-1.283c0-.178-1.177.321-2.567,1.034-1.425.748-2.708,1.39-2.815,1.461a15.647,15.647,0,0,1-2.139-2.816,33.867,33.867,0,0,1-3.991-7.092c-4.7-10.194-13.437-16.894-24.949-19.068A54.06,54.06,0,0,0,354.179,229.944Zm14.042,1.425a36.908,36.908,0,0,1,9.98,3.386,33.325,33.325,0,0,1,14.862,16.609,36.532,36.532,0,0,0,2.852,5.025,21.872,21.872,0,0,1,2,3.244,7.822,7.822,0,0,1-2.031,1.96c-2.424,1.853-4.705,4.17-4.134,4.17a1.447,1.447,0,0,0,.855-.57c.249-.321,1.675-1.533,3.1-2.745,2.067-1.675,2.708-2.031,2.958-1.639.677,1.069,1.746,4.384,1.5,4.6a14.645,14.645,0,0,1-2.246,1.033c-2.209.927-5.1,2.531-4.918,2.744a21.353,21.353,0,0,0,3.315-1.461,20.338,20.338,0,0,1,3.813-1.6c.428,0,.677.5.962,1.782.642,2.923.571,3.137-.926,3.386-2.816.428-6.522,1.355-6.522,1.6a7.769,7.769,0,0,0,2.78-.392,24.971,24.971,0,0,1,3.92-.677h1.212l-.25,1.5c-1.461,8.874-12.225,17.642-26.98,22.026a56.213,56.213,0,0,1-18.818,2.637c-9.2.036-13.722-.926-19.1-3.92l-2.317-1.319,1.355-.784a24.561,24.561,0,0,1,3.065-1.426,4.145,4.145,0,0,0,1.675-.926c0-.285-1.533.249-5.1,1.782l-1.711.748-1.568-1.069a10.872,10.872,0,0,1-2.138-1.889c-.535-.784-.535-.784,1.5-1.354a28.559,28.559,0,0,1,6.522-1.39c.606,0,1.069-.143,1.069-.321,0-.642-7.342.535-9.658,1.533-.464.213-.963-.357-2.246-2.388a19.872,19.872,0,0,1-1.639-2.923,35.01,35.01,0,0,1,6.237-.107c4.562.143,6.166.071,5.881-.214-.25-.249-2.531-.392-6.451-.392h-6.024l-.748-2.245a36.814,36.814,0,0,1,5.382-32.861c5.524-7.414,15.4-13.4,25.055-15.148A48.939,48.939,0,0,1,368.221,231.369Z" transform="translate(-203.85 -126.971)"/><path d="M381.373,259.169a8.785,8.785,0,0,0-4.42,3.351c-1.14,1.5-1.782,3.1-1.39,3.492.143.107,1.034-.534,2.032-1.425,2.067-1.889,5.7-3.814,7.128-3.814a2.162,2.162,0,0,0,1.426-.534C387.325,258.813,384.3,258.136,381.373,259.169Z" transform="translate(-203.85 -126.971)"/><path d="M368.827,270.111c-1.532.321-2.994,1.39-2.994,2.21,0,.891,1.462,1.818,2.923,1.818a2.5,2.5,0,0,0,2.317-1.034c1.033-1.212,1-2.709-.072-3.065A5.743,5.743,0,0,0,368.827,270.111Z" transform="translate(-203.85 -126.971)"/><path d="M345.269,270.4c-2.852.571-6.523,2.994-6.523,4.313,0,1.176,1,1.176,3.493.035a18.869,18.869,0,0,1,9.516-1.639c2.032.214,2.317.178,2.317-.356,0-.749-2.388-1.818-5.2-2.317-1.14-.214-2.067-.392-2.067-.357A12.287,12.287,0,0,1,345.269,270.4Z" transform="translate(-203.85 -126.971)"/><path d="M369.718,275.457c0,.072-.071.571-.142,1.105a4.927,4.927,0,0,1-2.139,3.315c-.819.534-1.5.57-5.132.071-.463-.071-.927.071-1,.321-.178.534,1.426,1.354,3.279,1.711a3.8,3.8,0,0,1,2.424,1.461,6.037,6.037,0,0,0,2.352,1.6c2.6.784,5.2-1.39,5.631-4.669.178-1.212.392-1.533,1.426-2.032a3.317,3.317,0,0,0,1.426-1.105c.356-.891-.642-1.1-1.889-.356a3.468,3.468,0,0,1-4.42-.606C370.859,275.529,369.825,275.1,369.718,275.457Zm2.1,6.772c.642.642-.178,1.354-1.532,1.354-1.39,0-2.388-.926-1.569-1.461A3.489,3.489,0,0,1,371.821,282.229Z" transform="translate(-203.85 -126.971)"/></g><g id="Texto"><text class="cls-9" transform="translate(22.362 258.88)">Panaderia Pedrin</text></g></svg>